<svg width="25" height="25" viewBox="0 0 25 25" fill="none" xmlns="http://www.w3.org/2000/svg">
<path d="M12.3872 21.0272C9.38721 21.0272 6.73521 19.4912 5.18721 17.1872C5.22321 14.7872 9.98721 13.4672 12.3872 13.4672C14.7872 13.4672 19.5512 14.7872 19.5872 17.1872C18.7939 18.3685 17.7222 19.3366 16.4667 20.0062C15.2111 20.6759 13.8102 21.0265 12.3872 21.0272ZM12.3872 3.98721C13.342 3.98721 14.2577 4.36649 14.9328 5.04162C15.6079 5.71675 15.9872 6.63243 15.9872 7.58721C15.9872 8.54199 15.6079 9.45766 14.9328 10.1328C14.2577 10.8079 13.342 11.1872 12.3872 11.1872C11.4324 11.1872 10.5168 10.8079 9.84162 10.1328C9.16649 9.45766 8.78721 8.54199 8.78721 7.58721C8.78721 6.63243 9.16649 5.71675 9.84162 5.04162C10.5168 4.36649 11.4324 3.98721 12.3872 3.98721ZM12.3872 0.387207C10.8113 0.387207 9.25091 0.697596 7.79501 1.30065C6.3391 1.90371 5.01623 2.78762 3.90193 3.90193C1.65149 6.15236 0.387207 9.20461 0.387207 12.3872C0.387207 15.5698 1.65149 18.6221 3.90193 20.8725C5.01623 21.9868 6.3391 22.8707 7.79501 23.4738C9.25091 24.0768 10.8113 24.3872 12.3872 24.3872C15.5698 24.3872 18.6221 23.1229 20.8725 20.8725C23.1229 18.6221 24.3872 15.5698 24.3872 12.3872C24.3872 5.75121 18.9872 0.387207 12.3872 0.387207Z" fill="black"/>
</svg>
