<svg width="20" height="20" viewBox="0 0 20 20" fill="none" xmlns="http://www.w3.org/2000/svg">
<path d="M9.3335 0.0212402C7.74924 0.127534 6.21305 0.609558 4.85207 1.42743C3.49108 2.24529 2.34441 3.3755 1.50694 4.72451C0.669477 6.07353 0.165286 7.60258 0.0360894 9.18514C-0.0931071 10.7677 0.156405 12.3583 0.763981 13.8253C1.37156 15.2923 2.31973 16.5935 3.53004 17.6213C4.74036 18.649 6.17801 19.3738 7.72406 19.7357C9.27011 20.0975 10.8801 20.086 12.4208 19.7021C13.9615 19.3182 15.3887 18.5729 16.5842 17.5279L9.5335 10.4759C9.47019 10.4138 9.41989 10.3398 9.38555 10.2581C9.35121 10.1763 9.33351 10.0886 9.3335 9.99991V0.0212402Z" fill="black"/>
<path d="M17.5265 16.5839C19.1242 14.763 20.0035 12.4223 19.9998 9.99991C20.0017 8.67229 19.7383 7.35768 19.2252 6.13324L11.1252 10.1826L17.5265 16.5839ZM18.6265 4.94124C17.8016 3.5341 16.6451 2.35012 15.2576 1.49255C13.8702 0.634982 12.294 0.129862 10.6665 0.0212402V8.92124L18.6265 4.94124Z" fill="black"/>
</svg>
