<svg width="20" height="20" viewBox="0 0 20 20" fill="none" xmlns="http://www.w3.org/2000/svg">
<path d="M4.17872e-08 9.99991C-0.000231739 7.46299 0.96376 5.02081 2.69672 3.16803C4.42968 1.31524 6.80206 0.190368 9.33333 0.0212402V5.38124C8.62969 5.48277 7.95855 5.74372 7.37113 6.14417C6.78372 6.54463 6.29556 7.074 5.94392 7.69188C5.59229 8.30976 5.38647 8.99981 5.34218 9.70936C5.29789 10.4189 5.41631 11.1292 5.68838 11.786C5.96045 12.4428 6.37899 13.0288 6.91205 13.4992C7.44511 13.9696 8.07859 14.3119 8.76415 14.5002C9.44971 14.6884 10.1692 14.7175 10.8677 14.5853C11.5663 14.4531 12.2253 14.163 12.7947 13.7372L16.584 17.5266C15.1381 18.7914 13.3585 19.613 11.458 19.893C9.55747 20.1731 7.61651 19.8999 5.86721 19.1059C4.11791 18.312 2.63431 17.031 1.59382 15.4162C0.553333 13.8013 3.0138e-06 11.9209 4.17872e-08 9.99991Z" fill="black"/>
<path d="M17.5265 16.5839C19.1241 14.763 20.0034 12.4223 19.9998 9.99991C19.9998 8.62124 19.7198 7.30924 19.2172 6.11457L14.3398 8.27991C14.6335 9.02101 14.7322 9.82499 14.6267 10.6151C14.5212 11.4052 14.2149 12.1551 13.7372 12.7932L17.5265 16.5839ZM10.6665 5.37991V0.0212402C12.2906 0.129359 13.8637 0.632339 15.2493 1.4865C16.6349 2.34065 17.791 3.52016 18.6172 4.92257L13.6718 7.11991C12.9315 6.17457 11.855 5.5513 10.6665 5.37991Z" fill="black"/>
</svg>
