<svg width="24" height="24" viewBox="0 0 24 24" fill="none" xmlns="http://www.w3.org/2000/svg">
<path d="M2.82353 24C2.04706 24 1.38212 23.7648 0.828708 23.2944C0.275296 22.824 -0.000938779 22.2592 2.39688e-06 21.6V4.8H2.82353V21.6H18.3529V24H2.82353ZM8.47059 19.2C7.69412 19.2 7.02918 18.9648 6.47577 18.4944C5.92235 18.024 5.64612 17.4592 5.64706 16.8V2.4C5.64706 1.74 5.92377 1.1748 6.47718 0.704402C7.03059 0.234002 7.69506 -0.000797963 8.47059 2.03735e-06H21.1765C21.9529 2.03735e-06 22.6179 0.235202 23.1713 0.705602C23.7247 1.176 24.0009 1.7408 24 2.4V16.8C24 17.46 23.7233 18.0252 23.1699 18.4956C22.6165 18.966 21.952 19.2008 21.1765 19.2H8.47059ZM8.47059 16.8H21.1765V2.4H8.47059V16.8Z" fill="black"/>
</svg>
