<svg width="24" height="24" viewBox="0 0 24 24" fill="none" xmlns="http://www.w3.org/2000/svg">
<path d="M11.9998 0.300049C5.54849 0.300049 0.299805 5.54874 0.299805 12C0.299805 18.4514 5.54849 23.7 11.9998 23.7C18.4511 23.7 23.6998 18.4514 23.6998 12C23.6998 5.54874 18.4511 0.300049 11.9998 0.300049ZM16.236 14.9639C16.3231 15.0466 16.3927 15.1459 16.4408 15.256C16.4889 15.3661 16.5145 15.4847 16.516 15.6048C16.5176 15.7249 16.495 15.8442 16.4498 15.9554C16.4045 16.0667 16.3374 16.1678 16.2525 16.2527C16.1675 16.3377 16.0665 16.4048 15.9552 16.45C15.8439 16.4953 15.7247 16.5178 15.6046 16.5163C15.4845 16.5147 15.3659 16.4892 15.2558 16.4411C15.1457 16.393 15.0464 16.3233 14.9636 16.2362L11.9998 13.273L9.03599 16.2362C8.86584 16.3979 8.63926 16.4867 8.40458 16.4837C8.16989 16.4807 7.94566 16.3861 7.7797 16.2202C7.61374 16.0542 7.51918 15.83 7.51617 15.5953C7.51317 15.3606 7.60196 15.134 7.76362 14.9639L10.7269 12L7.76362 9.03624C7.60196 8.86608 7.51317 8.63951 7.51617 8.40482C7.51918 8.17013 7.61374 7.94591 7.7797 7.77995C7.94566 7.61398 8.16989 7.51942 8.40458 7.51642C8.63926 7.51341 8.86584 7.6022 9.03599 7.76386L11.9998 10.7271L14.9636 7.76386C15.1338 7.6022 15.3603 7.51341 15.595 7.51642C15.8297 7.51942 16.0539 7.61398 16.2199 7.77995C16.3859 7.94591 16.4804 8.17013 16.4834 8.40482C16.4864 8.63951 16.3976 8.86608 16.236 9.03624L13.2727 12L16.236 14.9639Z" fill="black"/>
</svg>
