<svg width="24" height="24" viewBox="0 0 24 24" fill="none" xmlns="http://www.w3.org/2000/svg">
<path d="M11.9999 14.3999L3.59994 22.7999C3.28566 23.1142 2.88566 23.2714 2.39994 23.2714C1.91423 23.2714 1.51423 23.1142 1.19994 22.7999C0.885658 22.4857 0.728516 22.0857 0.728516 21.5999C0.728516 21.1142 0.885658 20.7142 1.19994 20.3999L9.59994 11.9999L1.19994 3.59994C0.885658 3.28566 0.728516 2.88566 0.728516 2.39994C0.728516 1.91423 0.885658 1.51423 1.19994 1.19994C1.51423 0.885658 1.91423 0.728516 2.39994 0.728516C2.88566 0.728516 3.28566 0.885658 3.59994 1.19994L11.9999 9.59994L20.3999 1.19994C20.7142 0.885658 21.1142 0.728516 21.5999 0.728516C22.0857 0.728516 22.4857 0.885658 22.7999 1.19994C23.1142 1.51423 23.2714 1.91423 23.2714 2.39994C23.2714 2.88566 23.1142 3.28566 22.7999 3.59994L14.3999 11.9999L22.7999 20.3999C23.1142 20.7142 23.2714 21.1142 23.2714 21.5999C23.2714 22.0857 23.1142 22.4857 22.7999 22.7999C22.4857 23.1142 22.0857 23.2714 21.5999 23.2714C21.1142 23.2714 20.7142 23.1142 20.3999 22.7999L11.9999 14.3999Z" fill="black"/>
</svg>
