<svg width="24" height="24" viewBox="0 0 24 24" fill="none" xmlns="http://www.w3.org/2000/svg">
<path d="M23.0859 23.5143C22.8574 23.7429 22.5861 23.8571 22.2722 23.8571C21.9583 23.8571 21.6867 23.7429 21.4574 23.5143L16.2002 18.2857H3.42879C2.80022 18.2857 2.26193 18.0617 1.81393 17.6137C1.36593 17.1657 1.14232 16.6278 1.14308 16V3.22857L0.428791 2.51429C0.20022 2.28571 0.0905057 2.01905 0.0996486 1.71429C0.108791 1.40952 0.228029 1.14286 0.457363 0.914286C0.685934 0.685714 0.957553 0.571429 1.27222 0.571429C1.58689 0.571429 1.85812 0.685714 2.08593 0.914286L23.0859 21.9143C23.3145 22.1429 23.4288 22.4095 23.4288 22.7143C23.4288 23.019 23.3145 23.2857 23.0859 23.5143ZM24.0002 19.5714L20.4288 16H21.7145V2.28571H6.7145L4.42879 0H21.7145C22.3431 0 22.8814 0.224 23.3294 0.672C23.7774 1.12 24.001 1.6579 24.0002 2.28571V19.5714ZM3.42879 16H13.9145L11.6288 13.7143H6.85736C6.53355 13.7143 6.26193 13.6046 6.04251 13.3851C5.82308 13.1657 5.71374 12.8945 5.7145 12.5714C5.7145 12.2476 5.82422 11.976 6.04365 11.7566C6.26308 11.5371 6.53431 11.4278 6.85736 11.4286H9.34308L8.20022 10.2857H6.85736C6.53355 10.2857 6.26231 10.176 6.04365 9.95657C5.82498 9.73714 5.71527 9.46591 5.7145 9.14286C5.7145 8.97143 5.75755 8.80457 5.84365 8.64229C5.92974 8.48 6.03908 8.3421 6.17165 8.22857L3.42879 5.51429V16ZM18.1431 13.7143L15.8574 11.4286H18.2859C18.6097 11.4286 18.8814 11.5383 19.1008 11.7577C19.3202 11.9771 19.4296 12.2484 19.4288 12.5714C19.4288 12.8952 19.3191 13.1669 19.0996 13.3863C18.8802 13.6057 18.609 13.715 18.2859 13.7143H18.1431ZM14.7145 10.2857L12.4288 8H18.2859C18.6097 8 18.8814 8.10971 19.1008 8.32914C19.3202 8.54857 19.4296 8.81981 19.4288 9.14286C19.4288 9.46667 19.3191 9.73829 19.0996 9.95772C18.8802 10.1771 18.609 10.2865 18.2859 10.2857H14.7145ZM11.2859 6.85714L9.00022 4.57143H18.2859C18.6097 4.57143 18.8814 4.68114 19.1008 4.90057C19.3202 5.12 19.4296 5.39124 19.4288 5.71429C19.4288 6.0381 19.3191 6.30971 19.0996 6.52914C18.8802 6.74857 18.609 6.85791 18.2859 6.85714H11.2859Z" fill="black"/>
</svg>
