<svg width="24" height="24" viewBox="0 0 24 24" fill="none" xmlns="http://www.w3.org/2000/svg">
<path d="M1.33334 24C0.95556 24 0.638671 23.872 0.382671 23.616C0.126671 23.36 -0.000884275 23.0436 4.61361e-06 22.6667C4.61361e-06 22.2889 0.128005 21.972 0.384005 21.716C0.640004 21.46 0.956449 21.3324 1.33334 21.3333H2.66667V2.66667C2.66667 1.93333 2.928 1.30533 3.45067 0.782668C3.97334 0.260002 4.60089 -0.000886625 5.33334 2.26372e-06H18.6667C19.4 2.26372e-06 20.028 0.261336 20.5507 0.784002C21.0733 1.30667 21.3342 1.93422 21.3333 2.66667V21.3333H22.6667C23.0444 21.3333 23.3613 21.4613 23.6173 21.7173C23.8733 21.9733 24.0009 22.2898 24 22.6667C24 23.0444 23.872 23.3613 23.616 23.6173C23.36 23.8733 23.0436 24.0009 22.6667 24H1.33334ZM5.33334 21.3333H18.6667V2.66667H5.33334V21.3333ZM9.33333 13.3333C9.71111 13.3333 10.028 13.2053 10.284 12.9493C10.54 12.6933 10.6676 12.3769 10.6667 12C10.6667 11.6222 10.5387 11.3053 10.2827 11.0493C10.0267 10.7933 9.71022 10.6658 9.33333 10.6667C8.95556 10.6667 8.63867 10.7947 8.38267 11.0507C8.12667 11.3067 7.99911 11.6231 8 12C8 12.3778 8.128 12.6947 8.384 12.9507C8.64 13.2067 8.95645 13.3342 9.33333 13.3333Z" fill="black"/>
</svg>
