<svg width="14" height="12" viewBox="0 0 14 12" fill="none" xmlns="http://www.w3.org/2000/svg">
<path d="M0.700159 0.70998C0.607455 0.802494 0.533907 0.912383 0.483726 1.03336C0.433545 1.15433 0.407715 1.28401 0.407715 1.41498C0.407715 1.54595 0.433545 1.67563 0.483726 1.7966C0.533907 1.91758 0.607455 2.02747 0.700159 2.11998L4.58016 5.99998L0.700159 9.87998C0.607577 9.97256 0.534137 10.0825 0.484032 10.2034C0.433927 10.3244 0.408138 10.454 0.408138 10.585C0.408138 10.7159 0.433927 10.8456 0.484032 10.9665C0.534137 11.0875 0.607577 11.1974 0.700159 11.29C0.792741 11.3826 0.902651 11.456 1.02362 11.5061C1.14458 11.5562 1.27423 11.582 1.40516 11.582C1.53609 11.582 1.66574 11.5562 1.7867 11.5061C1.90767 11.456 2.01758 11.3826 2.11016 11.29L6.70016 6.69998C6.79286 6.60747 6.86641 6.49758 6.91659 6.3766C6.96677 6.25563 6.9926 6.12595 6.9926 5.99498C6.9926 5.86401 6.96677 5.73433 6.91659 5.61336C6.86641 5.49238 6.79286 5.38249 6.70016 5.28998L2.12016 0.70998C1.73016 0.31998 1.09016 0.31998 0.700159 0.70998Z" fill="black"/>
<path d="M7.29 0.710022C7.1973 0.802536 7.12375 0.912424 7.07357 1.0334C7.02339 1.15437 6.99756 1.28405 6.99756 1.41502C6.99756 1.54599 7.02339 1.67567 7.07357 1.79665C7.12375 1.91762 7.1973 2.02751 7.29 2.12002L11.17 6.00002L7.29 9.88002C7.10303 10.067 6.99798 10.3206 6.99798 10.585C6.99798 10.8494 7.10303 11.103 7.29 11.29C7.47698 11.477 7.73058 11.582 7.995 11.582C8.25943 11.582 8.51303 11.477 8.7 11.29L13.29 6.70002C13.3827 6.60751 13.4563 6.49762 13.5064 6.37665C13.5566 6.25567 13.5824 6.12599 13.5824 5.99502C13.5824 5.86405 13.5566 5.73437 13.5064 5.6134C13.4563 5.49242 13.3827 5.38254 13.29 5.29002L8.7 0.700022C8.32 0.320022 7.68 0.320022 7.29 0.710022Z" fill="black"/>
</svg>
