<svg width="14" height="12" viewBox="0 0 14 12" fill="none" xmlns="http://www.w3.org/2000/svg">
<path d="M13.2898 11.29C13.3825 11.1975 13.456 11.0876 13.5062 10.9666C13.5564 10.8456 13.5822 10.716 13.5822 10.585C13.5822 10.454 13.5564 10.3243 13.5062 10.2034C13.456 10.0824 13.3825 9.9725 13.2898 9.87999L9.41977 5.99999L13.2998 2.11999C13.3923 2.02741 13.4658 1.9175 13.5159 1.79653C13.566 1.67557 13.5918 1.54592 13.5918 1.41499C13.5918 1.28406 13.566 1.15441 13.5159 1.03345C13.4658 0.912482 13.3923 0.802571 13.2998 0.70999C13.2072 0.617408 13.0973 0.543968 12.9763 0.493863C12.8553 0.443758 12.7257 0.417969 12.5948 0.417969C12.4638 0.417969 12.3342 0.443758 12.2132 0.493863C12.0923 0.543968 11.9823 0.617408 11.8898 0.70999L7.29977 5.29999C7.20706 5.3925 7.13352 5.50239 7.08334 5.62337C7.03315 5.74434 7.00732 5.87402 7.00732 6.00499C7.00732 6.13596 7.03315 6.26564 7.08334 6.38661C7.13352 6.50759 7.20706 6.61748 7.29977 6.70999L11.8898 11.3C12.2698 11.68 12.8998 11.68 13.2898 11.29Z" fill="black"/>
<path d="M6.69992 11.29C6.79263 11.1975 6.86618 11.0876 6.91636 10.9666C6.96654 10.8456 6.99237 10.716 6.99237 10.585C6.99237 10.454 6.96654 10.3243 6.91636 10.2034C6.86618 10.0824 6.79263 9.9725 6.69992 9.87999L2.82992 5.99999L6.70992 2.11999C6.8969 1.93301 7.00195 1.67942 7.00195 1.41499C7.00195 1.15056 6.8969 0.896967 6.70992 0.70999C6.52295 0.523012 6.26935 0.417969 6.00492 0.417969C5.7405 0.417969 5.4869 0.523012 5.29992 0.70999L0.709925 5.29999C0.617221 5.3925 0.543674 5.50239 0.493492 5.62337C0.443311 5.74434 0.41748 5.87402 0.41748 6.00499C0.41748 6.13596 0.443311 6.26564 0.493492 6.38661C0.543674 6.50759 0.617221 6.61748 0.709925 6.70999L5.29992 11.3C5.67992 11.68 6.30992 11.68 6.69992 11.29Z" fill="black"/>
</svg>
