<svg width="24" height="24" viewBox="0 0 24 24" fill="none" xmlns="http://www.w3.org/2000/svg">
<path d="M13.25 12C12.8958 12 12.5987 11.88 12.3587 11.64C12.1187 11.4 11.9992 11.1033 12 10.75V3.25C12 2.89583 12.12 2.59875 12.36 2.35875C12.6 2.11875 12.8967 1.99917 13.25 2C13.6042 2 13.9013 2.12 14.1413 2.36C14.3813 2.6 14.5008 2.89667 14.5 3.25V7.75L21.875 0.375C22.1042 0.145833 22.3958 0.03125 22.75 0.03125C23.1042 0.03125 23.3958 0.145833 23.625 0.375C23.8542 0.604167 23.9688 0.895834 23.9688 1.25C23.9688 1.60417 23.8542 1.89583 23.625 2.125L16.25 9.5H20.75C21.1042 9.5 21.4013 9.62 21.6413 9.86C21.8813 10.1 22.0008 10.3967 22 10.75C22 11.1042 21.88 11.4013 21.64 11.6413C21.4 11.8813 21.1033 12.0008 20.75 12H13.25ZM0.375 23.625C0.145833 23.3958 0.03125 23.1042 0.03125 22.75C0.03125 22.3958 0.145833 22.1042 0.375 21.875L7.75 14.5H3.25C2.89583 14.5 2.59875 14.38 2.35875 14.14C2.11875 13.9 1.99917 13.6033 2 13.25C2 12.8958 2.12 12.5987 2.36 12.3587C2.6 12.1187 2.89667 11.9992 3.25 12H10.75C11.1042 12 11.4013 12.12 11.6413 12.36C11.8813 12.6 12.0008 12.8967 12 13.25V20.75C12 21.1042 11.88 21.4013 11.64 21.6413C11.4 21.8813 11.1033 22.0008 10.75 22C10.3958 22 10.0987 21.88 9.85875 21.64C9.61875 21.4 9.49917 21.1033 9.5 20.75V16.25L2.125 23.625C1.89583 23.8542 1.60417 23.9688 1.25 23.9688C0.895834 23.9688 0.604167 23.8542 0.375 23.625Z" fill="black"/>
</svg>
