<svg width="39" height="38" viewBox="0 0 39 38" fill="none" xmlns="http://www.w3.org/2000/svg">
<path d="M19.5002 0.333252C16.9832 0.333252 14.4908 0.829012 12.1654 1.79223C9.83999 2.75544 7.72707 4.16725 5.94728 5.94704C2.35284 9.54148 0.333496 14.4166 0.333496 19.4999C0.333496 27.9716 5.83433 35.1591 13.4435 37.7082C14.4018 37.8616 14.7085 37.2674 14.7085 36.7499V33.5107C9.39933 34.6607 8.2685 30.9424 8.2685 30.9424C7.38683 28.7191 6.141 28.1249 6.141 28.1249C4.39683 26.9366 6.27516 26.9749 6.27516 26.9749C8.19183 27.1091 9.20766 28.9491 9.20766 28.9491C10.8752 31.8624 13.6927 30.9999 14.7852 30.5399C14.9577 29.2941 15.456 28.4508 15.9927 27.9716C11.7377 27.4924 7.27183 25.8441 7.27183 18.5416C7.27183 16.4141 8.00016 14.7083 9.246 13.3474C9.05433 12.8683 8.3835 10.8749 9.43766 8.28742C9.43766 8.28742 11.0477 7.76992 14.7085 10.2424C16.2227 9.82075 17.871 9.60992 19.5002 9.60992C21.1293 9.60992 22.7777 9.82075 24.2918 10.2424C27.9527 7.76992 29.5627 8.28742 29.5627 8.28742C30.6168 10.8749 29.946 12.8683 29.7543 13.3474C31.0002 14.7083 31.7285 16.4141 31.7285 18.5416C31.7285 25.8632 27.2435 27.4732 22.9693 27.9524C23.6593 28.5466 24.2918 29.7157 24.2918 31.4982V36.7499C24.2918 37.2674 24.5985 37.8807 25.576 37.7082C33.1852 35.1399 38.6668 27.9716 38.6668 19.4999C38.6668 16.9829 38.1711 14.4906 37.2079 12.1652C36.2446 9.83974 34.8328 7.72683 33.053 5.94704C31.2733 4.16725 29.1603 2.75544 26.8349 1.79223C24.5095 0.829012 22.0172 0.333252 19.5002 0.333252Z" fill="black"/>
</svg>
