<svg width="20" height="20" viewBox="0 0 20 20" fill="none" xmlns="http://www.w3.org/2000/svg">
<path d="M18.75 0H1.25C0.918479 0 0.600537 0.162087 0.366116 0.450605C0.131696 0.739122 0 1.13044 0 1.53846V18.4615C0 18.8696 0.131696 19.2609 0.366116 19.5494C0.600537 19.8379 0.918479 20 1.25 20H18.75C19.0815 20 19.3995 19.8379 19.6339 19.5494C19.8683 19.2609 20 18.8696 20 18.4615V1.53846C20 1.13044 19.8683 0.739122 19.6339 0.450605C19.3995 0.162087 19.0815 0 18.75 0ZM12.85 16.1077L8.4125 7.96923L4.45 15.1077L1.6375 12.0308L2.5 10.8077L4.1875 12.6462L8.4125 5.04615L12.9063 13.2846L17.2813 6.15385L18.3438 7.13846L12.85 16.1077Z" fill="black"/>
</svg>
