<svg width="24" height="24" viewBox="0 0 24 24" fill="none" xmlns="http://www.w3.org/2000/svg">
<path d="M21.7498 10.0593L16.2654 15.5437C16.6873 16.7343 16.8654 18.7218 15.0279 21.1687C14.8977 21.3403 14.7327 21.4826 14.5437 21.586C14.3546 21.6894 14.1458 21.7516 13.931 21.7687H13.8279C13.4306 21.767 13.0499 21.6086 12.7685 21.328L8.2498 16.8093L5.03418 20.0343C4.89082 20.1729 4.69921 20.2504 4.4998 20.2504C4.30039 20.2504 4.10878 20.1729 3.96543 20.0343C3.82459 19.8921 3.74558 19.7 3.74558 19.4999C3.74558 19.2998 3.82459 19.1077 3.96543 18.9655L7.19042 15.7499L2.65293 11.2124C2.5024 11.0641 2.38514 10.8855 2.3089 10.6884C2.23266 10.4913 2.19919 10.2803 2.21071 10.0693C2.22224 9.8583 2.27849 9.65217 2.37574 9.46457C2.473 9.27696 2.60902 9.11218 2.7748 8.98115C5.15605 7.05928 7.43417 7.44365 8.4373 7.75303L13.9404 2.2499C14.2228 1.97165 14.6034 1.81567 14.9998 1.81567C15.3962 1.81567 15.7768 1.97165 16.0592 2.2499L21.7498 7.94053C21.8898 8.07914 22.001 8.24413 22.0768 8.42597C22.1527 8.6078 22.1918 8.80288 22.1918 8.9999C22.1918 9.19693 22.1527 9.392 22.0768 9.57384C22.001 9.75568 21.8898 9.92067 21.7498 10.0593Z" fill="black"/>
</svg>
