<svg width="24" height="24" viewBox="0 0 24 24" fill="none" xmlns="http://www.w3.org/2000/svg">
<path d="M13.3333 24V21.3333H16V24H13.3333ZM10.6667 21.3333V14.6667H13.3333V21.3333H10.6667ZM21.3333 17.3333V12H24V17.3333H21.3333ZM18.6667 12V9.33333H21.3333V12H18.6667ZM2.66667 14.6667V12H5.33334V14.6667H2.66667ZM4.61361e-06 12V9.33333H2.66667V12H4.61361e-06ZM12 2.66667V4.61361e-06H14.6667V2.66667H12ZM2 6H6V2H2V6ZM1.33334 8C0.95556 8 0.638671 7.872 0.382671 7.616C0.126671 7.36 -0.000884275 7.04356 4.61361e-06 6.66667V1.33334C4.61361e-06 0.95556 0.128005 0.638671 0.384005 0.382671C0.640004 0.126671 0.956449 -0.000884275 1.33334 4.61361e-06H6.66667C7.04445 4.61361e-06 7.36134 0.128005 7.61734 0.384005C7.87333 0.640004 8.00089 0.956449 8 1.33334V6.66667C8 7.04445 7.872 7.36134 7.616 7.61734C7.36 7.87333 7.04356 8.00089 6.66667 8H1.33334ZM2 22H6V18H2V22ZM1.33334 24C0.95556 24 0.638671 23.872 0.382671 23.616C0.126671 23.36 -0.000884275 23.0436 4.61361e-06 22.6667V17.3333C4.61361e-06 16.9556 0.128005 16.6387 0.384005 16.3827C0.640004 16.1267 0.956449 15.9991 1.33334 16H6.66667C7.04445 16 7.36134 16.128 7.61734 16.384C7.87333 16.64 8.00089 16.9564 8 17.3333V22.6667C8 23.0444 7.872 23.3613 7.616 23.6173C7.36 23.8733 7.04356 24.0009 6.66667 24H1.33334ZM18 6H22V2H18V6ZM17.3333 8C16.9556 8 16.6387 7.872 16.3827 7.616C16.1267 7.36 15.9991 7.04356 16 6.66667V1.33334C16 0.95556 16.128 0.638671 16.384 0.382671C16.64 0.126671 16.9564 -0.000884275 17.3333 4.61361e-06H22.6667C23.0444 4.61361e-06 23.3613 0.128005 23.6173 0.384005C23.8733 0.640004 24.0009 0.956449 24 1.33334V6.66667C24 7.04445 23.872 7.36134 23.616 7.61734C23.36 7.87333 23.0436 8.00089 22.6667 8H17.3333ZM18.6667 24V20H16V17.3333H21.3333V21.3333H24V24H18.6667ZM13.3333 14.6667V12H18.6667V14.6667H13.3333ZM8 14.6667V12H5.33334V9.33333H13.3333V12H10.6667V14.6667H8ZM9.33333 8V2.66667H12V5.33334H14.6667V8H9.33333ZM3 5V3H5V5H3ZM3 21V19H5V21H3ZM19 5V3H21V5H19Z" fill="black"/>
</svg>
