<svg width="24" height="24" viewBox="0 0 24 24" fill="none" xmlns="http://www.w3.org/2000/svg">
<path d="M13.2675 3.10058L12.3825 0.918914C12.2363 0.54009 11.7788 0.526398 11.6175 0.918914L10.7325 3.10058L8.77125 3.44289C8.4225 3.50678 8.2725 4.03166 8.53125 4.34659L9.95625 6.03532L9.61875 8.41324C9.56625 8.83771 9.92625 9.16632 10.2487 8.97007L12.0075 7.83816L13.755 8.95181C14.0775 9.14807 14.4413 8.81945 14.385 8.39498L14.0475 6.01706L15.4725 4.34659C15.7275 4.03623 15.5813 3.51135 15.2325 3.44289L13.2713 3.10058H13.2675ZM9.6 12.3156C8.93625 12.3156 8.4 12.9683 8.4 13.7761V22.5393C8.4 23.3471 8.93625 23.9998 9.6 23.9998H14.4C15.0638 23.9998 15.6 23.3471 15.6 22.5393V13.7761C15.6 12.9683 15.0638 12.3156 14.4 12.3156H9.6ZM1.2 15.2366C0.53625 15.2366 0 15.8893 0 16.6972V22.5393C0 23.3471 0.53625 23.9998 1.2 23.9998H6C6.66375 23.9998 7.2 23.3471 7.2 22.5393V16.6972C7.2 15.8893 6.66375 15.2366 6 15.2366H1.2ZM16.8 19.6182V22.5393C16.8 23.3471 17.3363 23.9998 18 23.9998H22.8C23.4638 23.9998 24 23.3471 24 22.5393V19.6182C24 18.8104 23.4638 18.1577 22.8 18.1577H18C17.3363 18.1577 16.8 18.8104 16.8 19.6182Z" fill="black"/>
<path d="M14.4875 13.1375H13.7875C13.7325 13.1375 13.6875 13.1922 13.6875 13.2592V14.1111C13.6875 14.1781 13.7325 14.2328 13.7875 14.2328H14.4875C14.5425 14.2328 14.5875 14.1781 14.5875 14.1111V13.2592C14.5875 13.1922 14.5425 13.1375 14.4875 13.1375ZM13.9875 13.9894H13.8875V13.5634H13.9875V13.9894ZM14.1875 13.9894H14.0875V13.3809H14.1875V13.9894ZM14.3875 13.9894H14.2875V13.746H14.3875V13.9894Z" fill="black"/>
<path d="M10.2126 10.3533H9.5126C9.4576 10.3533 9.4126 10.408 9.4126 10.475V11.327C9.4126 11.3939 9.4576 11.4487 9.5126 11.4487H10.2126C10.2676 11.4487 10.3126 11.3939 10.3126 11.327V10.475C10.3126 10.408 10.2676 10.3533 10.2126 10.3533ZM10.2126 11.327H9.5126V10.475H10.2126V11.327ZM9.6126 10.7793H9.7126V11.2052H9.6126V10.7793ZM9.8126 10.5967H9.9126V11.2052H9.8126V10.5967ZM10.0126 10.9618H10.1126V11.2052H10.0126V10.9618Z" fill="black"/>
</svg>
