<svg width="20" height="20" viewBox="0 0 20 20" fill="none" xmlns="http://www.w3.org/2000/svg">
<path d="M10.0002 0.0793457C4.52403 0.0793457 0.0795898 4.52379 0.0795898 9.99998C0.0795898 15.4762 4.52403 19.9206 10.0002 19.9206C15.4764 19.9206 19.9209 15.4762 19.9209 9.99998C19.9209 4.52379 15.4764 0.0793457 10.0002 0.0793457ZM7.52007 12.6488V7.35117C7.52007 6.56744 8.39308 6.09125 9.04784 6.51784L13.1649 9.16665C13.3041 9.25658 13.4186 9.37997 13.4979 9.52554C13.5772 9.67111 13.6187 9.83423 13.6187 9.99998C13.6187 10.1657 13.5772 10.3288 13.4979 10.4744C13.4186 10.62 13.3041 10.7434 13.1649 10.8333L9.04784 13.4821C8.39308 13.9087 7.52007 13.4325 7.52007 12.6488Z" fill="black"/>
</svg>
