<svg width="24" height="24" viewBox="0 0 24 24" fill="none" xmlns="http://www.w3.org/2000/svg">
<path d="M22.2857 14.3967H13.7143V22.3967C13.7143 22.821 13.5337 23.228 13.2122 23.528C12.8907 23.8281 12.4547 23.9967 12 23.9967C11.5453 23.9967 11.1093 23.8281 10.7878 23.528C10.4663 23.228 10.2857 22.821 10.2857 22.3967V14.3967H1.71429C1.25963 14.3967 0.823594 14.2281 0.502103 13.928C0.180612 13.628 0 13.221 0 12.7967C0 12.3723 0.180612 11.9654 0.502103 11.6653C0.823594 11.3653 1.25963 11.1967 1.71429 11.1967H10.2857V3.19668C10.2857 2.77233 10.4663 2.36537 10.7878 2.06531C11.1093 1.76525 11.5453 1.59668 12 1.59668C12.4547 1.59668 12.8907 1.76525 13.2122 2.06531C13.5337 2.36537 13.7143 2.77233 13.7143 3.19668V11.1967H22.2857C22.7404 11.1967 23.1764 11.3653 23.4979 11.6653C23.8194 11.9654 24 12.3723 24 12.7967C24 13.221 23.8194 13.628 23.4979 13.928C23.1764 14.2281 22.7404 14.3967 22.2857 14.3967Z" fill="black"/>
</svg>
