<svg width="25" height="23" viewBox="0 0 25 23" fill="none" xmlns="http://www.w3.org/2000/svg">
<path d="M12.4384 19.0057L6.62149 22.369C6.36452 22.5259 6.09587 22.5932 5.81554 22.5707C5.53521 22.5483 5.28992 22.4586 5.07967 22.3017C4.86942 22.1447 4.7059 21.9483 4.58909 21.7124C4.47229 21.4766 4.44893 21.2133 4.51901 20.9227L6.06083 14.5662L0.909747 10.2948C0.676138 10.093 0.530366 9.86296 0.47243 9.60466C0.414495 9.34636 0.431782 9.09434 0.524292 8.8486C0.617735 8.60196 0.757901 8.40016 0.944788 8.24321C1.13168 8.08626 1.38865 7.98536 1.7157 7.94052L8.51373 7.36876L11.1418 1.38214C11.2586 1.11308 11.4399 0.911278 11.6857 0.776748C11.9314 0.642217 12.1823 0.574951 12.4384 0.574951C12.6953 0.574951 12.9462 0.642217 13.1911 0.776748C13.4359 0.911278 13.6172 1.11308 13.7349 1.38214L16.363 7.36876L23.161 7.94052C23.4881 7.98536 23.7451 8.08626 23.9319 8.24321C24.1188 8.40016 24.259 8.60196 24.3524 8.8486C24.4459 9.09524 24.4636 9.34771 24.4057 9.60601C24.3478 9.86431 24.2015 10.0939 23.967 10.2948L18.8159 14.5662L20.3577 20.9227C20.4278 21.2142 20.4044 21.4779 20.2876 21.7138C20.1708 21.9497 20.0073 22.1456 19.7971 22.3017C19.5868 22.4586 19.3415 22.5483 19.0612 22.5707C18.7809 22.5932 18.5122 22.5259 18.2552 22.369L12.4384 19.0057Z" fill="black"/>
</svg>
