<svg width="24" height="22" viewBox="0 0 24 22" fill="none" xmlns="http://www.w3.org/2000/svg">
<path d="M7.79995 17.8422L12 15.3541L16.2 17.8749L15.1 13.1606L18.8 10.0178L13.9333 9.59216L12 5.13978L10.0666 9.55942L5.19995 9.98501L8.89995 13.1606L7.79995 17.8422ZM12 18.4314L6.46662 21.7053C6.22217 21.858 5.96662 21.9235 5.69995 21.9017C5.43328 21.8799 5.19995 21.7926 4.99995 21.6398C4.79995 21.487 4.64439 21.2958 4.53328 21.0662C4.42217 20.8366 4.39995 20.5804 4.46662 20.2975L5.93328 14.11L1.03328 9.95228C0.811061 9.75585 0.672395 9.53192 0.617284 9.28049C0.562173 9.02906 0.578617 8.78374 0.666617 8.54454C0.755506 8.30446 0.888839 8.10803 1.06662 7.95525C1.24439 7.80247 1.48884 7.70426 1.79995 7.66061L8.26662 7.10406L10.7666 1.27668C10.8777 1.01478 11.0502 0.818348 11.284 0.687395C11.5177 0.556443 11.7564 0.490967 12 0.490967C12.2444 0.490967 12.4831 0.556443 12.716 0.687395C12.9488 0.818348 13.1213 1.01478 13.2333 1.27668L15.7333 7.10406L22.1999 7.66061C22.5111 7.70426 22.7555 7.80247 22.9333 7.95525C23.1111 8.10803 23.2444 8.30446 23.3333 8.54454C23.4222 8.78462 23.4391 9.03037 23.3839 9.2818C23.3288 9.53323 23.1897 9.75672 22.9666 9.95228L18.0666 14.11L19.5333 20.2975C19.6 20.5812 19.5777 20.8379 19.4666 21.0675C19.3555 21.2971 19.2 21.4879 19 21.6398C18.8 21.7926 18.5666 21.8799 18.3 21.9017C18.0333 21.9235 17.7777 21.858 17.5333 21.7053L12 18.4314Z" fill="black"/>
</svg>
