<svg width="24" height="18" viewBox="0 0 24 18" fill="none" xmlns="http://www.w3.org/2000/svg">
<path d="M16.8 15.6V18H0V15.6C0 15.6 0 10.8 8.4 10.8C16.8 10.8 16.8 15.6 16.8 15.6ZM12.6 4.20005C12.6 3.36937 12.3537 2.55735 11.8922 1.86666C11.4307 1.17598 10.7747 0.637655 10.0073 0.319768C9.23982 0.00188119 8.39534 -0.0812925 7.58062 0.0807648C6.7659 0.242822 6.01753 0.642832 5.43015 1.23021C4.84277 1.81759 4.44276 2.56595 4.2807 3.38067C4.11864 4.19539 4.20182 5.03987 4.51971 5.80731C4.83759 6.57476 5.37592 7.23071 6.06661 7.69221C6.75729 8.15371 7.56932 8.40003 8.4 8.40003C9.51391 8.40003 10.5822 7.95754 11.3698 7.16989C12.1575 6.38224 12.6 5.31395 12.6 4.20005ZM16.728 10.8C17.4657 11.3709 18.0693 12.0965 18.4964 12.9258C18.9235 13.7551 19.1637 14.6679 19.2 15.6V18H24V15.6C24 15.6 24 11.244 16.728 10.8ZM15.6 6.30946e-05C14.774 -0.00453615 13.9662 0.242409 13.284 0.708061C14.0129 1.72654 14.4049 2.9476 14.4049 4.20005C14.4049 5.4525 14.0129 6.67356 13.284 7.69204C13.9662 8.15769 14.774 8.40463 15.6 8.40003C16.7139 8.40003 17.7822 7.95754 18.5699 7.16989C19.3575 6.38224 19.8 5.31395 19.8 4.20005C19.8 3.08614 19.3575 2.01786 18.5699 1.23021C17.7822 0.44256 16.7139 6.30946e-05 15.6 6.30946e-05Z" fill="black"/>
</svg>
