<svg width="20" height="19" viewBox="0 0 20 19" fill="none" xmlns="http://www.w3.org/2000/svg">
<path d="M19.4445 15.6685L11.8533 1.57906C11.6636 1.23387 11.3928 0.947663 11.0677 0.748797C10.7426 0.54993 10.3746 0.445312 10 0.445312C9.62544 0.445312 9.25737 0.54993 8.93229 0.748797C8.60721 0.947663 8.3364 1.23387 8.14671 1.57906L0.555564 15.6685C0.373044 16.0023 0.276855 16.3821 0.276855 16.7688C0.276855 17.1554 0.373044 17.5352 0.555564 17.869C0.74283 18.2163 1.01318 18.5041 1.33886 18.7028C1.66455 18.9016 2.03385 19.0041 2.40886 18.9999H17.5912C17.9659 19.0038 18.3348 18.9011 18.6602 18.7023C18.9855 18.5036 19.2556 18.216 19.4427 17.869C19.6255 17.5353 19.722 17.1557 19.7223 16.769C19.7226 16.3823 19.6267 16.0025 19.4445 15.6685ZM9.30556 7.8672C9.30556 7.67036 9.37873 7.48158 9.50896 7.3424C9.6392 7.20321 9.81583 7.12502 10 7.12502C10.1842 7.12502 10.3608 7.20321 10.4911 7.3424C10.6213 7.48158 10.6945 7.67036 10.6945 7.8672V11.5781C10.6945 11.775 10.6213 11.9637 10.4911 12.1029C10.3608 12.2421 10.1842 12.3203 10 12.3203C9.81583 12.3203 9.6392 12.2421 9.50896 12.1029C9.37873 11.9637 9.30556 11.775 9.30556 11.5781V7.8672ZM10 16.0312C9.79399 16.0312 9.59259 15.9659 9.42129 15.8436C9.24999 15.7213 9.11648 15.5474 9.03763 15.344C8.95879 15.1405 8.93816 14.9167 8.97836 14.7007C9.01855 14.4848 9.11776 14.2864 9.26344 14.1307C9.40912 13.975 9.59473 13.869 9.79679 13.8261C9.99885 13.7831 10.2083 13.8051 10.3986 13.8894C10.589 13.9737 10.7517 14.1164 10.8661 14.2994C10.9806 14.4825 11.0417 14.6977 11.0417 14.9179C11.0417 15.2132 10.9319 15.4964 10.7366 15.7051C10.5412 15.9139 10.2763 16.0312 10 16.0312Z" fill="black"/>
</svg>
