<svg width="128" height="23" viewBox="0 0 128 23" fill="none" xmlns="http://www.w3.org/2000/svg">
<path d="M36.7682 17H32.8642C31.5309 17 30.5389 16.7333 29.8882 16.2C29.2482 15.6667 28.9282 14.8453 28.9282 13.736V8.75998C28.9282 7.65065 29.2482 6.82931 29.8882 6.29598C30.5389 5.75198 31.5309 5.47998 32.8642 5.47998H36.7682C36.9709 5.47998 37.1149 5.52798 37.2002 5.62398C37.2962 5.70931 37.3442 5.85331 37.3442 6.05598V7.99198C37.3442 8.19465 37.2962 8.34398 37.2002 8.43998C37.1149 8.52531 36.9709 8.56798 36.7682 8.56798H33.5522C33.2215 8.56798 32.9762 8.63731 32.8162 8.77598C32.6562 8.90398 32.5762 9.10131 32.5762 9.36798V13.176C32.5762 13.4427 32.6562 13.64 32.8162 13.768C32.9762 13.8853 33.2215 13.944 33.5522 13.944H36.7682C36.9709 13.944 37.1149 13.992 37.2002 14.088C37.2962 14.1733 37.3442 14.3173 37.3442 14.52V16.424C37.3442 16.6267 37.2962 16.776 37.2002 16.872C37.1149 16.9573 36.9709 17 36.7682 17ZM47.8711 17H39.7271C39.5244 17 39.3751 16.9573 39.2791 16.872C39.1937 16.776 39.1511 16.6267 39.1511 16.424V6.05598C39.1511 5.85331 39.1937 5.70931 39.2791 5.62398C39.3751 5.52798 39.5244 5.47998 39.7271 5.47998H42.2071C42.4097 5.47998 42.5537 5.52798 42.6391 5.62398C42.7351 5.70931 42.7831 5.85331 42.7831 6.05598V13.976H44.9751V11.384C44.9751 11.1813 45.0177 11.0373 45.1031 10.952C45.1991 10.856 45.3484 10.808 45.5511 10.808H47.8711C48.0737 10.808 48.2177 10.856 48.3031 10.952C48.3991 11.0373 48.4471 11.1813 48.4471 11.384V16.424C48.4471 16.6267 48.3991 16.776 48.3031 16.872C48.2177 16.9573 48.0737 17 47.8711 17ZM54.4521 8.83998L53.7001 11.272H56.2121L55.4601 8.83998C55.4174 8.74398 55.3694 8.67465 55.3161 8.63198C55.2734 8.58931 55.2201 8.56798 55.1561 8.56798H54.7561C54.6921 8.56798 54.6334 8.58931 54.5801 8.63198C54.5374 8.67465 54.4947 8.74398 54.4521 8.83998ZM53.5401 16.424C53.5401 16.6267 53.4921 16.776 53.3961 16.872C53.3107 16.9573 53.1667 17 52.9641 17H50.6121C50.4094 17 50.2601 16.9573 50.1641 16.872C50.0787 16.776 50.0361 16.6267 50.0361 16.424V12.2C50.0361 11.88 50.0841 11.512 50.1801 11.096C50.2867 10.68 50.4467 10.1947 50.6601 9.63998L52.0521 6.00798C52.1161 5.82665 52.2121 5.69331 52.3401 5.60798C52.4787 5.52265 52.6547 5.47998 52.8681 5.47998H57.1721C57.3747 5.47998 57.5401 5.52265 57.6681 5.60798C57.8067 5.69331 57.9081 5.82665 57.9721 6.00798L59.3641 9.63998C59.5774 10.1947 59.7321 10.68 59.8281 11.096C59.9347 11.512 59.9881 11.88 59.9881 12.2V16.424C59.9881 16.6267 59.9401 16.776 59.8441 16.872C59.7587 16.9573 59.6147 17 59.4121 17H56.9961C56.7827 17 56.6227 16.9573 56.5161 16.872C56.4201 16.776 56.3721 16.6267 56.3721 16.424V14.184H53.5401V16.424ZM67.3076 17H62.2516C62.0489 17 61.8996 16.9573 61.8036 16.872C61.7182 16.776 61.6756 16.6267 61.6756 16.424V14.552C61.6756 14.3493 61.7182 14.2053 61.8036 14.12C61.8996 14.024 62.0489 13.976 62.2516 13.976H66.5556C66.6942 13.976 66.7956 13.9333 66.8596 13.848C66.9342 13.752 66.9716 13.64 66.9716 13.512C66.9716 13.3307 66.9342 13.1973 66.8596 13.112C66.7956 13.0267 66.6942 12.9787 66.5556 12.968L64.1556 12.632C63.4089 12.5253 62.8062 12.28 62.3476 11.896C61.8996 11.512 61.6756 10.872 61.6756 9.97598V8.29598C61.6756 7.38931 61.9689 6.69598 62.5556 6.21598C63.1422 5.72531 63.9529 5.47998 64.9876 5.47998H69.4676C69.6702 5.47998 69.8142 5.52798 69.8996 5.62398C69.9956 5.70931 70.0436 5.85331 70.0436 6.05598V7.95998C70.0436 8.16265 69.9956 8.31198 69.8996 8.40798C69.8142 8.49331 69.6702 8.53598 69.4676 8.53598H65.7396C65.6009 8.53598 65.4942 8.58398 65.4196 8.67998C65.3449 8.76531 65.3076 8.87731 65.3076 9.01598C65.3076 9.15465 65.3449 9.27198 65.4196 9.36798C65.4942 9.46398 65.6009 9.51731 65.7396 9.52798L68.1236 9.84798C68.8702 9.95465 69.4729 10.2 69.9316 10.584C70.3902 10.968 70.6196 11.608 70.6196 12.504V14.184C70.6196 15.0907 70.3209 15.7893 69.7236 16.28C69.1369 16.76 68.3316 17 67.3076 17ZM77.6357 17H72.5797C72.377 17 72.2277 16.9573 72.1317 16.872C72.0464 16.776 72.0037 16.6267 72.0037 16.424V14.552C72.0037 14.3493 72.0464 14.2053 72.1317 14.12C72.2277 14.024 72.377 13.976 72.5797 13.976H76.8837C77.0224 13.976 77.1237 13.9333 77.1877 13.848C77.2624 13.752 77.2997 13.64 77.2997 13.512C77.2997 13.3307 77.2624 13.1973 77.1877 13.112C77.1237 13.0267 77.0224 12.9787 76.8837 12.968L74.4837 12.632C73.737 12.5253 73.1344 12.28 72.6757 11.896C72.2277 11.512 72.0037 10.872 72.0037 9.97598V8.29598C72.0037 7.38931 72.297 6.69598 72.8837 6.21598C73.4704 5.72531 74.281 5.47998 75.3157 5.47998H79.7957C79.9984 5.47998 80.1424 5.52798 80.2277 5.62398C80.3237 5.70931 80.3717 5.85331 80.3717 6.05598V7.95998C80.3717 8.16265 80.3237 8.31198 80.2277 8.40798C80.1424 8.49331 79.9984 8.53598 79.7957 8.53598H76.0677C75.929 8.53598 75.8224 8.58398 75.7477 8.67998C75.673 8.76531 75.6357 8.87731 75.6357 9.01598C75.6357 9.15465 75.673 9.27198 75.7477 9.36798C75.8224 9.46398 75.929 9.51731 76.0677 9.52798L78.4517 9.84798C79.1984 9.95465 79.801 10.2 80.2597 10.584C80.7184 10.968 80.9477 11.608 80.9477 12.504V14.184C80.9477 15.0907 80.649 15.7893 80.0517 16.28C79.465 16.76 78.6597 17 77.6357 17ZM85.658 17H83.274C83.0713 17 82.922 16.9573 82.826 16.872C82.7406 16.776 82.698 16.6267 82.698 16.424V6.05598C82.698 5.85331 82.7406 5.70931 82.826 5.62398C82.922 5.52798 83.0713 5.47998 83.274 5.47998H85.85C86.0206 5.47998 86.1593 5.51731 86.266 5.59198C86.3833 5.66665 86.49 5.78931 86.586 5.95998L88.026 8.56798C88.0793 8.66398 88.122 8.73331 88.154 8.77598C88.1966 8.81865 88.25 8.83998 88.314 8.83998H88.458C88.522 8.83998 88.57 8.81865 88.602 8.77598C88.6446 8.73331 88.6926 8.66398 88.746 8.56798L90.17 5.95998C90.266 5.78931 90.3673 5.66665 90.474 5.59198C90.5913 5.51731 90.7353 5.47998 90.906 5.47998H93.498C93.7006 5.47998 93.8446 5.52798 93.93 5.62398C94.026 5.70931 94.074 5.85331 94.074 6.05598V16.424C94.074 16.6267 94.026 16.776 93.93 16.872C93.8446 16.9573 93.7006 17 93.498 17H91.034C90.8313 17 90.682 16.9573 90.586 16.872C90.5006 16.776 90.458 16.6267 90.458 16.424V10.792L89.514 12.536C89.418 12.7173 89.3006 12.8507 89.162 12.936C89.034 13.0107 88.8686 13.048 88.666 13.048H88.026C87.8233 13.048 87.6526 13.0107 87.514 12.936C87.386 12.8507 87.274 12.7173 87.178 12.536L86.234 10.792V16.424C86.234 16.6267 86.186 16.776 86.09 16.872C86.0046 16.9573 85.8606 17 85.658 17ZM100.452 8.83998L99.7001 11.272H102.212L101.46 8.83998C101.417 8.74398 101.369 8.67465 101.316 8.63198C101.273 8.58931 101.22 8.56798 101.156 8.56798H100.756C100.692 8.56798 100.633 8.58931 100.58 8.63198C100.537 8.67465 100.495 8.74398 100.452 8.83998ZM99.5401 16.424C99.5401 16.6267 99.4921 16.776 99.3961 16.872C99.3107 16.9573 99.1667 17 98.9641 17H96.6121C96.4094 17 96.2601 16.9573 96.1641 16.872C96.0787 16.776 96.0361 16.6267 96.0361 16.424V12.2C96.0361 11.88 96.0841 11.512 96.1801 11.096C96.2867 10.68 96.4467 10.1947 96.6601 9.63998L98.0521 6.00798C98.1161 5.82665 98.2121 5.69331 98.3401 5.60798C98.4787 5.52265 98.6547 5.47998 98.8681 5.47998H103.172C103.375 5.47998 103.54 5.52265 103.668 5.60798C103.807 5.69331 103.908 5.82665 103.972 6.00798L105.364 9.63998C105.577 10.1947 105.732 10.68 105.828 11.096C105.935 11.512 105.988 11.88 105.988 12.2V16.424C105.988 16.6267 105.94 16.776 105.844 16.872C105.759 16.9573 105.615 17 105.412 17H102.996C102.783 17 102.623 16.9573 102.516 16.872C102.42 16.776 102.372 16.6267 102.372 16.424V14.184H99.5401V16.424ZM112.763 17H110.171C109.968 17 109.819 16.9573 109.723 16.872C109.637 16.776 109.595 16.6267 109.595 16.424V8.56798H107.243C107.04 8.56798 106.891 8.52531 106.795 8.43998C106.709 8.34398 106.667 8.19465 106.667 7.99198V6.05598C106.667 5.85331 106.709 5.70931 106.795 5.62398C106.891 5.52798 107.04 5.47998 107.243 5.47998H115.691C115.893 5.47998 116.037 5.52798 116.123 5.62398C116.219 5.70931 116.267 5.85331 116.267 6.05598V7.99198C116.267 8.19465 116.219 8.34398 116.123 8.43998C116.037 8.52531 115.893 8.56798 115.691 8.56798H113.339V16.424C113.339 16.6267 113.291 16.776 113.195 16.872C113.109 16.9573 112.965 17 112.763 17ZM125.823 17H118.399C118.196 17 118.047 16.9573 117.951 16.872C117.865 16.776 117.823 16.6267 117.823 16.424V6.05598C117.823 5.85331 117.865 5.70931 117.951 5.62398C118.047 5.52798 118.196 5.47998 118.399 5.47998H125.823C126.025 5.47998 126.169 5.52798 126.255 5.62398C126.351 5.70931 126.399 5.85331 126.399 6.05598V7.92798C126.399 8.13065 126.351 8.27998 126.255 8.37598C126.169 8.46131 126.025 8.50398 125.823 8.50398H121.407V9.73598H124.527C124.729 9.73598 124.873 9.78398 124.959 9.87998C125.055 9.96531 125.103 10.1093 125.103 10.312V12.024C125.103 12.2267 125.055 12.376 124.959 12.472C124.873 12.5573 124.729 12.6 124.527 12.6H121.407V13.976H125.823C126.025 13.976 126.169 14.024 126.255 14.12C126.351 14.2053 126.399 14.3493 126.399 14.552V16.424C126.399 16.6267 126.351 16.776 126.255 16.872C126.169 16.9573 126.025 17 125.823 17Z" fill="#3D85F8"/>
<path d="M0 10C0 4.47715 4.47715 0 10 0H22V12C22 17.5228 17.5228 22 12 22H0V10Z" fill="url(#paint0_linear_106_1364)"/>
<path d="M10.4101 17.2719C9.6314 17.2719 8.91673 17.1172 8.26607 16.8079C7.6154 16.4879 7.09273 16.0026 6.69807 15.3519C6.31407 14.7012 6.12207 13.8906 6.12207 12.9199C6.12207 11.6826 6.4314 10.4986 7.05007 9.36795C7.66873 8.22662 8.50607 7.30395 9.56207 6.59995C10.6287 5.89595 11.7914 5.54395 13.0501 5.54395C13.7327 5.54395 14.3727 5.65062 14.9701 5.86395C15.5674 6.06662 15.9834 6.34395 16.2181 6.69595C16.1114 6.97328 16.0154 7.32528 15.9301 7.75195C15.8554 8.16795 15.8127 8.56262 15.8021 8.93595L15.4021 8.99995C15.4021 8.83995 15.3914 8.64262 15.3701 8.40795C15.3594 8.17328 15.3381 7.95995 15.3061 7.76795C15.2314 7.26662 15.0181 6.88262 14.6661 6.61595C14.3247 6.34928 13.8021 6.21595 13.0981 6.21595C11.9567 6.21595 10.9221 6.54662 9.99407 7.20795C9.07673 7.86928 8.35673 8.71728 7.83407 9.75195C7.3114 10.7866 7.05007 11.8319 7.05007 12.8879C7.05007 13.6986 7.20473 14.3759 7.51407 14.9199C7.83407 15.4532 8.2554 15.8532 8.77807 16.1199C9.3114 16.3759 9.9034 16.5039 10.5541 16.5039C11.6741 16.5039 12.7194 16.1412 13.6901 15.4159C14.6607 14.6799 15.3967 13.6346 15.8981 12.2799C16.1861 12.2799 16.3301 12.4772 16.3301 12.8719C16.3301 13.4266 16.0527 14.0559 15.4981 14.7599C14.9434 15.4532 14.2074 16.0452 13.2901 16.5359C12.3834 17.0266 11.4234 17.2719 10.4101 17.2719Z" fill="white"/>
<defs>
<linearGradient id="paint0_linear_106_1364" x1="11" y1="0" x2="11" y2="22" gradientUnits="userSpaceOnUse">
<stop stop-color="#3D85F8"/>
<stop offset="1" stop-color="#000F93"/>
</linearGradient>
</defs>
</svg>
