<svg width="334" height="60" viewBox="0 0 334 60" fill="none" xmlns="http://www.w3.org/2000/svg">
<path d="M95.9414 44.3478H85.7544C82.2753 44.3478 79.6868 43.6521 77.9889 42.2609C76.3189 40.8697 75.4839 38.7269 75.4839 35.833V22.8522C75.4839 19.9583 76.3189 17.8156 77.9889 16.4243C79.6868 15.0052 82.2753 14.2957 85.7544 14.2957H95.9414C96.4703 14.2957 96.8461 14.4209 97.0686 14.6713C97.3191 14.8939 97.4444 15.2696 97.4444 15.7983V20.8487C97.4444 21.3774 97.3191 21.767 97.0686 22.0174C96.8461 22.24 96.4703 22.3513 95.9414 22.3513H87.5496C86.6867 22.3513 86.0466 22.5322 85.6291 22.8939C85.2116 23.2278 85.0029 23.7426 85.0029 24.4383V34.3722C85.0029 35.0679 85.2116 35.5826 85.6291 35.9165C86.0466 36.2225 86.6867 36.3757 87.5496 36.3757H95.9414C96.4703 36.3757 96.8461 36.5009 97.0686 36.7513C97.3191 36.9738 97.4444 37.3495 97.4444 37.8783V42.8452C97.4444 43.374 97.3191 43.7635 97.0686 44.0139C96.8461 44.2364 96.4703 44.3478 95.9414 44.3478ZM124.913 44.3478H103.662C103.133 44.3478 102.744 44.2364 102.493 44.0139C102.27 43.7635 102.159 43.374 102.159 42.8452V15.7983C102.159 15.2696 102.27 14.8939 102.493 14.6713C102.744 14.4209 103.133 14.2957 103.662 14.2957H110.134C110.662 14.2957 111.038 14.4209 111.261 14.6713C111.511 14.8939 111.637 15.2696 111.637 15.7983V36.4591H117.356V29.6974C117.356 29.1686 117.467 28.793 117.69 28.5704C117.941 28.32 118.33 28.1948 118.859 28.1948H124.913C125.442 28.1948 125.817 28.32 126.04 28.5704C126.291 28.793 126.416 29.1686 126.416 29.6974V42.8452C126.416 43.374 126.291 43.7635 126.04 44.0139C125.817 44.2364 125.442 44.3478 124.913 44.3478ZM142.085 23.0609L140.123 29.4052H146.678L144.716 23.0609C144.604 22.8104 144.479 22.6296 144.34 22.5183C144.228 22.407 144.089 22.3513 143.922 22.3513H142.879C142.712 22.3513 142.558 22.407 142.419 22.5183C142.308 22.6296 142.196 22.8104 142.085 23.0609ZM139.706 42.8452C139.706 43.374 139.58 43.7635 139.33 44.0139C139.107 44.2364 138.731 44.3478 138.203 44.3478H132.065C131.536 44.3478 131.147 44.2364 130.896 44.0139C130.673 43.7635 130.562 43.374 130.562 42.8452V31.8261C130.562 30.9913 130.688 30.0313 130.938 28.9461C131.216 27.8609 131.634 26.5949 132.191 25.1478L135.823 15.673C135.99 15.2 136.24 14.8522 136.574 14.6296C136.936 14.407 137.395 14.2957 137.952 14.2957H149.183C149.711 14.2957 150.143 14.407 150.477 14.6296C150.839 14.8522 151.103 15.2 151.27 15.673L154.903 25.1478C155.459 26.5949 155.863 27.8609 156.113 28.9461C156.391 30.0313 156.531 30.9913 156.531 31.8261V42.8452C156.531 43.374 156.406 43.7635 156.155 44.0139C155.932 44.2364 155.556 44.3478 155.028 44.3478H148.724C148.167 44.3478 147.749 44.2364 147.471 44.0139C147.221 43.7635 147.095 43.374 147.095 42.8452V37.0017H139.706V42.8452ZM175.63 44.3478H162.437C161.908 44.3478 161.519 44.2364 161.268 44.0139C161.045 43.7635 160.934 43.374 160.934 42.8452V37.9617C160.934 37.433 161.045 37.0573 161.268 36.8348C161.519 36.5843 161.908 36.4591 162.437 36.4591H173.668C174.03 36.4591 174.294 36.3477 174.461 36.1252C174.656 35.8748 174.753 35.5826 174.753 35.2487C174.753 34.7757 174.656 34.4277 174.461 34.2052C174.294 33.9827 174.03 33.8575 173.668 33.8296L167.405 32.953C165.457 32.6747 163.884 32.0348 162.688 31.033C161.519 30.0313 160.934 28.3617 160.934 26.0243V21.6417C160.934 19.2765 161.699 17.4678 163.23 16.2157C164.761 14.9356 166.876 14.2957 169.576 14.2957H181.266C181.795 14.2957 182.171 14.4209 182.394 14.6713C182.644 14.8939 182.769 15.2696 182.769 15.7983V20.7652C182.769 21.2939 182.644 21.6835 182.394 21.9339C182.171 22.1565 181.795 22.2678 181.266 22.2678H171.539C171.177 22.2678 170.898 22.393 170.704 22.6435C170.509 22.8661 170.411 23.1583 170.411 23.52C170.411 23.8817 170.509 24.1878 170.704 24.4383C170.898 24.6887 171.177 24.8278 171.539 24.8557L177.759 25.6904C179.708 25.9687 181.28 26.6087 182.477 27.6104C183.674 28.6122 184.272 30.2817 184.272 32.6191V37.0017C184.272 39.367 183.493 41.1895 181.934 42.4696C180.403 43.7217 178.302 44.3478 175.63 44.3478ZM202.58 44.3478H189.387C188.858 44.3478 188.469 44.2364 188.218 44.0139C187.995 43.7635 187.884 43.374 187.884 42.8452V37.9617C187.884 37.433 187.995 37.0573 188.218 36.8348C188.469 36.5843 188.858 36.4591 189.387 36.4591H200.618C200.98 36.4591 201.244 36.3477 201.411 36.1252C201.606 35.8748 201.703 35.5826 201.703 35.2487C201.703 34.7757 201.606 34.4277 201.411 34.2052C201.244 33.9827 200.98 33.8575 200.618 33.8296L194.355 32.953C192.407 32.6747 190.834 32.0348 189.638 31.033C188.469 30.0313 187.884 28.3617 187.884 26.0243V21.6417C187.884 19.2765 188.649 17.4678 190.18 16.2157C191.711 14.9356 193.826 14.2957 196.526 14.2957H208.216C208.745 14.2957 209.121 14.4209 209.344 14.6713C209.594 14.8939 209.719 15.2696 209.719 15.7983V20.7652C209.719 21.2939 209.594 21.6835 209.344 21.9339C209.121 22.1565 208.745 22.2678 208.216 22.2678H198.489C198.127 22.2678 197.848 22.393 197.654 22.6435C197.459 22.8661 197.361 23.1583 197.361 23.52C197.361 23.8817 197.459 24.1878 197.654 24.4383C197.848 24.6887 198.127 24.8278 198.489 24.8557L204.709 25.6904C206.658 25.9687 208.23 26.6087 209.427 27.6104C210.624 28.6122 211.222 30.2817 211.222 32.6191V37.0017C211.222 39.367 210.443 41.1895 208.884 42.4696C207.353 43.7217 205.252 44.3478 202.58 44.3478ZM223.513 44.3478H217.292C216.764 44.3478 216.374 44.2364 216.123 44.0139C215.901 43.7635 215.789 43.374 215.789 42.8452V15.7983C215.789 15.2696 215.901 14.8939 216.123 14.6713C216.374 14.4209 216.764 14.2957 217.292 14.2957H224.014C224.459 14.2957 224.821 14.393 225.1 14.5878C225.406 14.7826 225.684 15.1026 225.935 15.5478L229.692 22.3513C229.831 22.6017 229.943 22.7826 230.026 22.8939C230.137 23.0052 230.277 23.0609 230.444 23.0609H230.819C230.986 23.0609 231.112 23.0052 231.195 22.8939C231.306 22.7826 231.432 22.6017 231.571 22.3513L235.287 15.5478C235.537 15.1026 235.802 14.7826 236.08 14.5878C236.386 14.393 236.762 14.2957 237.207 14.2957H243.971C244.499 14.2957 244.875 14.4209 245.098 14.6713C245.348 14.8939 245.474 15.2696 245.474 15.7983V42.8452C245.474 43.374 245.348 43.7635 245.098 44.0139C244.875 44.2364 244.499 44.3478 243.971 44.3478H237.541C237.012 44.3478 236.623 44.2364 236.372 44.0139C236.149 43.7635 236.038 43.374 236.038 42.8452V28.153L233.575 32.7026C233.324 33.1756 233.018 33.5236 232.656 33.7461C232.322 33.941 231.891 34.0383 231.362 34.0383H229.692C229.163 34.0383 228.718 33.941 228.356 33.7461C228.022 33.5236 227.73 33.1756 227.479 32.7026L225.016 28.153V42.8452C225.016 43.374 224.891 43.7635 224.64 44.0139C224.418 44.2364 224.042 44.3478 223.513 44.3478ZM262.117 23.0609L260.154 29.4052H266.709L264.747 23.0609C264.635 22.8104 264.51 22.6296 264.371 22.5183C264.259 22.407 264.121 22.3513 263.954 22.3513H262.91C262.743 22.3513 262.589 22.407 262.451 22.5183C262.339 22.6296 262.229 22.8104 262.117 23.0609ZM259.737 42.8452C259.737 43.374 259.612 43.7635 259.361 44.0139C259.138 44.2364 258.762 44.3478 258.234 44.3478H252.097C251.568 44.3478 251.178 44.2364 250.928 44.0139C250.705 43.7635 250.594 43.374 250.594 42.8452V31.8261C250.594 30.9913 250.719 30.0313 250.969 28.9461C251.247 27.8609 251.665 26.5949 252.222 25.1478L255.854 15.673C256.021 15.2 256.272 14.8522 256.606 14.6296C256.967 14.407 257.426 14.2957 257.983 14.2957H269.214C269.744 14.2957 270.175 14.407 270.509 14.6296C270.871 14.8522 271.135 15.2 271.302 15.673L274.934 25.1478C275.49 26.5949 275.894 27.8609 276.145 28.9461C276.424 30.0313 276.562 30.9913 276.562 31.8261V42.8452C276.562 43.374 276.437 43.7635 276.187 44.0139C275.965 44.2364 275.589 44.3478 275.059 44.3478H268.755C268.199 44.3478 267.782 44.2364 267.503 44.0139C267.252 43.7635 267.127 43.374 267.127 42.8452V37.0017H259.737V42.8452ZM294.241 44.3478H287.477C286.948 44.3478 286.559 44.2364 286.308 44.0139C286.084 43.7635 285.974 43.374 285.974 42.8452V22.3513H279.837C279.307 22.3513 278.919 22.24 278.668 22.0174C278.444 21.767 278.334 21.3774 278.334 20.8487V15.7983C278.334 15.2696 278.444 14.8939 278.668 14.6713C278.919 14.4209 279.307 14.2957 279.837 14.2957H301.881C302.408 14.2957 302.784 14.4209 303.008 14.6713C303.259 14.8939 303.384 15.2696 303.384 15.7983V20.8487C303.384 21.3774 303.259 21.767 303.008 22.0174C302.784 22.24 302.408 22.3513 301.881 22.3513H295.744V42.8452C295.744 43.374 295.619 43.7635 295.368 44.0139C295.144 44.2364 294.768 44.3478 294.241 44.3478ZM328.319 44.3478H308.947C308.418 44.3478 308.029 44.2364 307.778 44.0139C307.554 43.7635 307.444 43.374 307.444 42.8452V15.7983C307.444 15.2696 307.554 14.8939 307.778 14.6713C308.029 14.4209 308.418 14.2957 308.947 14.2957H328.319C328.846 14.2957 329.222 14.4209 329.447 14.6713C329.697 14.8939 329.822 15.2696 329.822 15.7983V20.6817C329.822 21.2104 329.697 21.6 329.447 21.8504C329.222 22.073 328.846 22.1843 328.319 22.1843H316.796V25.3983H324.938C325.465 25.3983 325.84 25.5235 326.065 25.7739C326.315 25.9965 326.441 26.3721 326.441 26.9009V31.367C326.441 31.8957 326.315 32.2852 326.065 32.5357C325.84 32.7582 325.465 32.8696 324.938 32.8696H316.796V36.4591H328.319C328.846 36.4591 329.222 36.5843 329.447 36.8348C329.697 37.0573 329.822 37.433 329.822 37.9617V42.8452C329.822 43.374 329.697 43.7635 329.447 44.0139C329.222 44.2364 328.846 44.3478 328.319 44.3478Z" fill="white"/>
<path d="M0 26.087C0 11.6795 11.6826 0 26.0938 0H57.4062V31.3043C57.4062 45.7117 45.7236 57.3913 31.3125 57.3913H0V26.087Z" fill="url(#paint0_linear_106_1360)"/>
<path d="M27.1632 45.0574C25.1313 45.0574 23.2664 44.6539 21.5686 43.847C19.8708 43.0122 18.5069 41.7462 17.4771 40.0487C16.4751 38.3513 15.9741 36.2366 15.9741 33.7044C15.9741 30.4766 16.7813 27.388 18.3956 24.4383C20.0099 21.4609 22.1949 19.054 24.9504 17.2174C27.7336 15.3809 30.7675 14.4626 34.0519 14.4626C35.8331 14.4626 37.5031 14.7409 39.0619 15.2974C40.6205 15.8261 41.706 16.5496 42.3184 17.4679C42.04 18.1913 41.7895 19.1096 41.5669 20.2226C41.372 21.3079 41.2606 22.3374 41.2329 23.3113L40.1892 23.4783C40.1892 23.0609 40.1613 22.5461 40.1057 21.934C40.0778 21.3218 40.0222 20.7653 39.9387 20.2644C39.7438 18.9566 39.1872 17.9548 38.2687 17.2592C37.3778 16.5635 36.0142 16.2157 34.1772 16.2157C31.1988 16.2157 28.4992 17.0783 26.0776 18.8035C23.6839 20.5287 21.8052 22.7409 20.4414 25.44C19.0775 28.1393 18.3956 30.8661 18.3956 33.6209C18.3956 35.7358 18.7992 37.5026 19.6064 38.9218C20.4414 40.313 21.5408 41.3565 22.9046 42.0522C24.2963 42.72 25.841 43.0539 27.5389 43.0539C30.4614 43.0539 33.189 42.1078 35.7219 40.2157C38.2546 38.2957 40.1751 35.5688 41.4834 32.0348C42.2349 32.0348 42.6107 32.5495 42.6107 33.5792C42.6107 35.0262 41.8868 36.6679 40.4397 38.5044C38.9923 40.313 37.0718 41.8573 34.6782 43.1374C32.3123 44.4175 29.8073 45.0574 27.1632 45.0574Z" fill="white"/>
<defs>
<linearGradient id="paint0_linear_106_1360" x1="28.7031" y1="0" x2="28.7031" y2="57.3913" gradientUnits="userSpaceOnUse">
<stop stop-color="white"/>
<stop offset="1" stop-color="#B7B7B7"/>
</linearGradient>
</defs>
</svg>
