<svg width="211" height="38" viewBox="0 0 211 38" fill="none" xmlns="http://www.w3.org/2000/svg">
<path d="M60.6098 28.087H54.1743C51.9764 28.087 50.3412 27.6464 49.2685 26.7653C48.2135 25.8842 47.686 24.5271 47.686 22.6943V14.4731C47.686 12.6403 48.2135 11.2833 49.2685 10.4021C50.3412 9.50335 51.9764 9.05396 54.1743 9.05396H60.6098C60.9439 9.05396 61.1813 9.13326 61.3219 9.29187C61.4802 9.43285 61.5593 9.67076 61.5593 10.0056V13.2042C61.5593 13.5391 61.4802 13.7858 61.3219 13.9444C61.1813 14.0854 60.9439 14.1559 60.6098 14.1559H55.3084C54.7633 14.1559 54.3589 14.2704 54.0952 14.4995C53.8314 14.711 53.6995 15.037 53.6995 15.4776V21.7691C53.6995 22.2097 53.8314 22.5357 54.0952 22.7472C54.3589 22.941 54.7633 23.038 55.3084 23.038H60.6098C60.9439 23.038 61.1813 23.1173 61.3219 23.2759C61.4802 23.4168 61.5593 23.6547 61.5593 23.9896V27.1353C61.5593 27.4702 61.4802 27.7169 61.3219 27.8755C61.1813 28.0165 60.9439 28.087 60.6098 28.087ZM78.9122 28.087H65.4873C65.1532 28.087 64.9071 28.0165 64.7488 27.8755C64.6081 27.7169 64.5379 27.4702 64.5379 27.1353V10.0056C64.5379 9.67076 64.6081 9.43285 64.7488 9.29187C64.9071 9.13326 65.1532 9.05396 65.4873 9.05396H69.5755C69.9094 9.05396 70.1468 9.13326 70.2876 9.29187C70.4458 9.43285 70.525 9.67076 70.525 10.0056V23.0908H74.1383V18.8084C74.1383 18.4735 74.2086 18.2356 74.3493 18.0947C74.5076 17.936 74.7537 17.8567 75.0878 17.8567H78.9122C79.2462 17.8567 79.4836 17.936 79.6243 18.0947C79.7826 18.2356 79.8617 18.4735 79.8617 18.8084V27.1353C79.8617 27.4702 79.7826 27.7169 79.6243 27.8755C79.4836 28.0165 79.2462 28.087 78.9122 28.087ZM89.7606 14.6053L88.521 18.6233H92.6618L91.4222 14.6053C91.3518 14.4467 91.2727 14.3321 91.1848 14.2616C91.1144 14.1911 91.0266 14.1559 90.9211 14.1559H90.2617C90.1562 14.1559 90.0594 14.1911 89.9716 14.2616C89.9012 14.3321 89.8308 14.4467 89.7606 14.6053ZM88.2572 27.1353C88.2572 27.4702 88.1781 27.7169 88.0198 27.8755C87.8791 28.0165 87.6417 28.087 87.3077 28.087H83.4306C83.0965 28.087 82.8503 28.0165 82.6921 27.8755C82.5513 27.7169 82.4811 27.4702 82.4811 27.1353V20.1566C82.4811 19.6279 82.5602 19.0199 82.7185 18.3326C82.8942 17.6453 83.1579 16.8435 83.5097 15.927L85.8043 9.9263C85.9098 9.62671 86.0681 9.40641 86.2791 9.26543C86.5076 9.12445 86.7977 9.05396 87.1495 9.05396H94.2443C94.5783 9.05396 94.851 9.12445 95.062 9.26543C95.2904 9.40641 95.4576 9.62671 95.5631 9.9263L97.8577 15.927C98.2093 16.8435 98.4643 17.6453 98.6226 18.3326C98.7983 19.0199 98.8863 19.6279 98.8863 20.1566V27.1353C98.8863 27.4702 98.8072 27.7169 98.649 27.8755C98.5082 28.0165 98.2708 28.087 97.9368 28.087H93.9542C93.6024 28.087 93.3387 28.0165 93.163 27.8755C93.0047 27.7169 92.9256 27.4702 92.9256 27.1353V23.4345H88.2572V27.1353ZM110.952 28.087H102.618C102.283 28.087 102.037 28.0165 101.879 27.8755C101.738 27.7169 101.668 27.4702 101.668 27.1353V24.0425C101.668 23.7076 101.738 23.4697 101.879 23.3287C102.037 23.1701 102.283 23.0908 102.618 23.0908H109.712C109.941 23.0908 110.108 23.0203 110.214 22.8793C110.337 22.7207 110.398 22.5357 110.398 22.3242C110.398 22.0247 110.337 21.8043 110.214 21.6633C110.108 21.5224 109.941 21.4431 109.712 21.4254L105.756 20.8703C104.525 20.694 103.532 20.2887 102.776 19.6543C102.037 19.0199 101.668 17.9625 101.668 16.4821V13.7065C101.668 12.2085 102.152 11.063 103.119 10.27C104.086 9.45928 105.422 9.05396 107.128 9.05396H114.513C114.847 9.05396 115.084 9.13326 115.225 9.29187C115.383 9.43285 115.462 9.67076 115.462 10.0056V13.1513C115.462 13.4862 115.383 13.7329 115.225 13.8915C115.084 14.0325 114.847 14.103 114.513 14.103H108.367C108.139 14.103 107.963 14.1823 107.84 14.3409C107.717 14.4819 107.655 14.6669 107.655 14.896C107.655 15.1251 107.717 15.319 107.84 15.4776C107.963 15.6362 108.139 15.7243 108.367 15.742L112.297 16.2707C113.528 16.4469 114.521 16.8522 115.278 17.4867C116.034 18.1211 116.412 19.1785 116.412 20.6588V23.4345C116.412 24.9325 115.919 26.0867 114.935 26.8974C113.968 27.6905 112.64 28.087 110.952 28.087ZM127.977 28.087H119.643C119.309 28.087 119.063 28.0165 118.904 27.8755C118.764 27.7169 118.693 27.4702 118.693 27.1353V24.0425C118.693 23.7076 118.764 23.4697 118.904 23.3287C119.063 23.1701 119.309 23.0908 119.643 23.0908H126.738C126.966 23.0908 127.133 23.0203 127.239 22.8793C127.362 22.7207 127.423 22.5357 127.423 22.3242C127.423 22.0247 127.362 21.8043 127.239 21.6633C127.133 21.5224 126.966 21.4431 126.738 21.4254L122.781 20.8703C121.551 20.694 120.557 20.2887 119.801 19.6543C119.063 19.0199 118.693 17.9625 118.693 16.4821V13.7065C118.693 12.2085 119.177 11.063 120.144 10.27C121.111 9.45928 122.447 9.05396 124.153 9.05396H131.538C131.872 9.05396 132.109 9.13326 132.25 9.29187C132.408 9.43285 132.487 9.67076 132.487 10.0056V13.1513C132.487 13.4862 132.408 13.7329 132.25 13.8915C132.109 14.0325 131.872 14.103 131.538 14.103H125.393C125.164 14.103 124.988 14.1823 124.865 14.3409C124.742 14.4819 124.68 14.6669 124.68 14.896C124.68 15.1251 124.742 15.319 124.865 15.4776C124.988 15.6362 125.164 15.7243 125.393 15.742L129.322 16.2707C130.553 16.4469 131.547 16.8522 132.303 17.4867C133.059 18.1211 133.437 19.1785 133.437 20.6588V23.4345C133.437 24.9325 132.945 26.0867 131.96 26.8974C130.993 27.6905 129.665 28.087 127.977 28.087ZM141.202 28.087H137.272C136.938 28.087 136.691 28.0165 136.533 27.8755C136.392 27.7169 136.322 27.4702 136.322 27.1353V10.0056C136.322 9.67076 136.392 9.43285 136.533 9.29187C136.691 9.13326 136.938 9.05396 137.272 9.05396H141.518C141.799 9.05396 142.028 9.11563 142.204 9.239C142.397 9.36237 142.573 9.56502 142.731 9.847L145.105 14.1559C145.193 14.3145 145.263 14.429 145.316 14.4995C145.386 14.57 145.474 14.6053 145.58 14.6053H145.817C145.923 14.6053 146.002 14.57 146.055 14.4995C146.125 14.429 146.204 14.3145 146.292 14.1559L148.639 9.847C148.798 9.56502 148.965 9.36237 149.14 9.239C149.334 9.11563 149.571 9.05396 149.853 9.05396H154.125C154.459 9.05396 154.697 9.13326 154.837 9.29187C154.996 9.43285 155.075 9.67076 155.075 10.0056V27.1353C155.075 27.4702 154.996 27.7169 154.837 27.8755C154.697 28.0165 154.459 28.087 154.125 28.087H150.064C149.729 28.087 149.483 28.0165 149.325 27.8755C149.184 27.7169 149.114 27.4702 149.114 27.1353V17.8303L147.558 20.7117C147.4 21.0112 147.206 21.2316 146.978 21.3726C146.767 21.496 146.494 21.5576 146.16 21.5576H145.105C144.771 21.5576 144.49 21.496 144.261 21.3726C144.05 21.2316 143.865 21.0112 143.707 20.7117L142.151 17.8303V27.1353C142.151 27.4702 142.072 27.7169 141.914 27.8755C141.773 28.0165 141.536 28.087 141.202 28.087ZM165.589 14.6053L164.349 18.6233H168.49L167.251 14.6053C167.18 14.4467 167.1 14.3321 167.013 14.2616C166.942 14.1911 166.855 14.1559 166.749 14.1559H166.09C165.984 14.1559 165.887 14.1911 165.8 14.2616C165.729 14.3321 165.66 14.4467 165.589 14.6053ZM164.085 27.1353C164.085 27.4702 164.006 27.7169 163.848 27.8755C163.707 28.0165 163.47 28.087 163.136 28.087H159.259C158.925 28.087 158.678 28.0165 158.52 27.8755C158.379 27.7169 158.309 27.4702 158.309 27.1353V20.1566C158.309 19.6279 158.388 19.0199 158.547 18.3326C158.722 17.6453 158.986 16.8435 159.338 15.927L161.632 9.9263C161.738 9.62671 161.896 9.40641 162.107 9.26543C162.336 9.12445 162.626 9.05396 162.978 9.05396H170.073C170.407 9.05396 170.679 9.12445 170.89 9.26543C171.119 9.40641 171.286 9.62671 171.391 9.9263L173.686 15.927C174.037 16.8435 174.293 17.6453 174.451 18.3326C174.627 19.0199 174.715 19.6279 174.715 20.1566V27.1353C174.715 27.4702 174.636 27.7169 174.477 27.8755C174.337 28.0165 174.1 28.087 173.765 28.087H169.783C169.431 28.087 169.168 28.0165 168.991 27.8755C168.833 27.7169 168.754 27.4702 168.754 27.1353V23.4345H164.085V27.1353ZM185.883 28.087H181.61C181.275 28.087 181.03 28.0165 180.872 27.8755C180.73 27.7169 180.661 27.4702 180.661 27.1353V14.1559H176.783C176.449 14.1559 176.203 14.0854 176.045 13.9444C175.903 13.7858 175.834 13.5391 175.834 13.2042V10.0056C175.834 9.67076 175.903 9.43285 176.045 9.29187C176.203 9.13326 176.449 9.05396 176.783 9.05396H190.709C191.042 9.05396 191.28 9.13326 191.422 9.29187C191.58 9.43285 191.659 9.67076 191.659 10.0056V13.2042C191.659 13.5391 191.58 13.7858 191.422 13.9444C191.28 14.0854 191.042 14.1559 190.709 14.1559H186.832V27.1353C186.832 27.4702 186.753 27.7169 186.595 27.8755C186.453 28.0165 186.216 28.087 185.883 28.087ZM207.411 28.087H195.173C194.839 28.087 194.593 28.0165 194.435 27.8755C194.293 27.7169 194.224 27.4702 194.224 27.1353V10.0056C194.224 9.67076 194.293 9.43285 194.435 9.29187C194.593 9.13326 194.839 9.05396 195.173 9.05396H207.411C207.744 9.05396 207.982 9.13326 208.124 9.29187C208.282 9.43285 208.361 9.67076 208.361 10.0056V13.0985C208.361 13.4333 208.282 13.68 208.124 13.8387C207.982 13.9796 207.744 14.0501 207.411 14.0501H200.132V16.0856H205.275C205.608 16.0856 205.845 16.1649 205.987 16.3235C206.145 16.4645 206.225 16.7024 206.225 17.0373V19.8658C206.225 20.2007 206.145 20.4473 205.987 20.606C205.845 20.7469 205.608 20.8174 205.275 20.8174H200.132V23.0908H207.411C207.744 23.0908 207.982 23.1701 208.124 23.3287C208.282 23.4697 208.361 23.7076 208.361 24.0425V27.1353C208.361 27.4702 208.282 27.7169 208.124 27.8755C207.982 28.0165 207.744 28.087 207.411 28.087Z" fill="#3D85F8"/>
<path d="M0 16.5217C0 7.39703 7.3803 0 16.4844 0H36.2656V19.8261C36.2656 28.9507 28.8852 36.3478 19.7812 36.3478H0V16.5217Z" fill="url(#paint0_linear_106_1364)"/>
<path d="M17.1598 28.5364C15.8762 28.5364 14.6981 28.2808 13.6256 27.7698C12.553 27.2411 11.6914 26.4393 11.0408 25.3642C10.4078 24.2891 10.0913 22.9499 10.0913 21.3461C10.0913 19.3019 10.6012 17.3457 11.6211 15.4776C12.6409 13.5919 14.0212 12.0675 15.7619 10.9044C17.5202 9.74123 19.4368 9.15967 21.5117 9.15967C22.6369 9.15967 23.6919 9.3359 24.6767 9.68836C25.6613 10.0232 26.3471 10.4814 26.734 11.063C26.5581 11.5212 26.3998 12.1027 26.2592 12.8077C26.1361 13.495 26.0657 14.147 26.0482 14.7638L25.3888 14.8696C25.3888 14.6052 25.3712 14.2792 25.3361 13.8915C25.3185 13.5038 25.2833 13.1513 25.2306 12.8341C25.1075 12.0058 24.7558 11.3714 24.1756 10.9308C23.6128 10.4902 22.7513 10.2699 21.5908 10.2699C19.7093 10.2699 18.0038 10.8163 16.4741 11.9089C14.9619 13.0015 13.775 14.4026 12.9134 16.112C12.0518 17.8215 11.6211 19.5485 11.6211 21.2932C11.6211 22.6326 11.876 23.7517 12.3859 24.6504C12.9134 25.5316 13.608 26.1924 14.4696 26.6331C15.3487 27.056 16.3246 27.2675 17.3972 27.2675C19.2435 27.2675 20.9666 26.6682 22.5667 25.4699C24.1667 24.2539 25.3799 22.5269 26.2065 20.2887C26.6812 20.2887 26.9186 20.6147 26.9186 21.2668C26.9186 22.1833 26.4613 23.223 25.5471 24.3861C24.6327 25.5316 23.4195 26.5096 21.9073 27.3204C20.4127 28.1311 18.8302 28.5364 17.1598 28.5364Z" fill="white"/>
<defs>
<linearGradient id="paint0_linear_106_1364" x1="18.1328" y1="0" x2="18.1328" y2="36.3478" gradientUnits="userSpaceOnUse">
<stop stop-color="#3D85F8"/>
<stop offset="1" stop-color="#000F93"/>
</linearGradient>
</defs>
</svg>
