<svg width="189" height="34" viewBox="0 0 189 34" fill="none" xmlns="http://www.w3.org/2000/svg">
<path d="M54.2901 25.1304H48.5256C46.5569 25.1304 45.0922 24.7361 44.1314 23.9478C43.1864 23.1594 42.7139 21.9452 42.7139 20.3054V12.9495C42.7139 11.3096 43.1864 10.0955 44.1314 9.30709C45.0922 8.50292 46.5569 8.10083 48.5256 8.10083H54.2901C54.5894 8.10083 54.802 8.17179 54.928 8.3137C55.0697 8.43984 55.1406 8.65271 55.1406 8.95231V11.8142C55.1406 12.1138 55.0697 12.3346 54.928 12.4765C54.802 12.6026 54.5894 12.6657 54.2901 12.6657H49.5415C49.0532 12.6657 48.691 12.7682 48.4547 12.9732C48.2185 13.1624 48.1004 13.4541 48.1004 13.8483V19.4775C48.1004 19.8718 48.2185 20.1634 48.4547 20.3527C48.691 20.5261 49.0532 20.6128 49.5415 20.6128H54.2901C54.5894 20.6128 54.802 20.6838 54.928 20.8257C55.0697 20.9518 55.1406 21.1647 55.1406 21.4643V24.2789C55.1406 24.5786 55.0697 24.7993 54.928 24.9412C54.802 25.0673 54.5894 25.1304 54.2901 25.1304ZM70.6842 25.1304H58.6591C58.3598 25.1304 58.1394 25.0673 57.9976 24.9412C57.8715 24.7993 57.8086 24.5786 57.8086 24.2789V8.95231C57.8086 8.65271 57.8715 8.43984 57.9976 8.3137C58.1394 8.17179 58.3598 8.10083 58.6591 8.10083H62.321C62.6201 8.10083 62.8328 8.17179 62.9589 8.3137C63.1006 8.43984 63.1715 8.65271 63.1715 8.95231V20.6601H66.4081V16.8285C66.4081 16.5288 66.471 16.316 66.5971 16.1899C66.7389 16.048 66.9593 15.977 67.2586 15.977H70.6842C70.9834 15.977 71.196 16.048 71.3221 16.1899C71.4639 16.316 71.5347 16.5288 71.5347 16.8285V24.2789C71.5347 24.5786 71.4639 24.7993 71.3221 24.9412C71.196 25.0673 70.9834 25.1304 70.6842 25.1304ZM80.4015 13.0678L79.2911 16.6629H83.0002L81.8899 13.0678C81.8268 12.9259 81.756 12.8234 81.6772 12.7603C81.6142 12.6972 81.5355 12.6657 81.441 12.6657H80.8504C80.7559 12.6657 80.6692 12.6972 80.5905 12.7603C80.5275 12.8234 80.4644 12.9259 80.4015 13.0678ZM79.0549 24.2789C79.0549 24.5786 78.984 24.7993 78.8423 24.9412C78.7162 25.0673 78.5035 25.1304 78.2044 25.1304H74.7315C74.4322 25.1304 74.2117 25.0673 74.07 24.9412C73.9439 24.7993 73.881 24.5786 73.881 24.2789V18.0347C73.881 17.5617 73.9519 17.0177 74.0936 16.4027C74.251 15.7878 74.4873 15.0704 74.8024 14.2504L76.8577 8.88135C76.9522 8.6133 77.094 8.41619 77.283 8.29005C77.4877 8.16391 77.7475 8.10083 78.0626 8.10083H84.4178C84.7169 8.10083 84.9611 8.16391 85.1501 8.29005C85.3548 8.41619 85.5045 8.6133 85.599 8.88135L87.6544 14.2504C87.9693 15.0704 88.1978 15.7878 88.3395 16.4027C88.4969 17.0177 88.5758 17.5617 88.5758 18.0347V24.2789C88.5758 24.5786 88.5049 24.7993 88.3631 24.9412C88.237 25.0673 88.0244 25.1304 87.7253 25.1304H84.1579C83.8428 25.1304 83.6065 25.0673 83.4491 24.9412C83.3074 24.7993 83.2365 24.5786 83.2365 24.2789V20.9676H79.0549V24.2789ZM99.3835 25.1304H91.918C91.6187 25.1304 91.3982 25.0673 91.2564 24.9412C91.1303 24.7993 91.0674 24.5786 91.0674 24.2789V21.5116C91.0674 21.212 91.1303 20.9991 91.2564 20.873C91.3982 20.7311 91.6187 20.6601 91.918 20.6601H98.2731C98.4777 20.6601 98.6274 20.597 98.7219 20.4709C98.8321 20.329 98.8873 20.1634 98.8873 19.9742C98.8873 19.7062 98.8321 19.509 98.7219 19.3829C98.6274 19.2568 98.4777 19.1859 98.2731 19.17L94.7293 18.6734C93.6268 18.5156 92.7369 18.153 92.0597 17.5854C91.3982 17.0177 91.0674 16.0716 91.0674 14.7471V12.2636C91.0674 10.9233 91.5005 9.8984 92.3668 9.18883C93.233 8.46349 94.43 8.10083 95.9578 8.10083H102.573C102.872 8.10083 103.085 8.17179 103.211 8.3137C103.352 8.43984 103.423 8.65271 103.423 8.95231V11.7669C103.423 12.0665 103.352 12.2873 103.211 12.4292C103.085 12.5553 102.872 12.6184 102.573 12.6184H97.0682C96.8634 12.6184 96.7059 12.6894 96.5957 12.8313C96.4854 12.9574 96.4303 13.123 96.4303 13.328C96.4303 13.533 96.4854 13.7064 96.5957 13.8483C96.7059 13.9902 96.8634 14.0691 97.0682 14.0848L100.588 14.5579C101.691 14.7156 102.581 15.0782 103.258 15.6459C103.935 16.2135 104.274 17.1596 104.274 18.4841V20.9676C104.274 22.308 103.833 23.3407 102.951 24.066C102.085 24.7756 100.895 25.1304 99.3835 25.1304ZM114.634 25.1304H107.168C106.869 25.1304 106.648 25.0673 106.507 24.9412C106.381 24.7993 106.318 24.5786 106.318 24.2789V21.5116C106.318 21.212 106.381 20.9991 106.507 20.873C106.648 20.7311 106.869 20.6601 107.168 20.6601H113.523C113.728 20.6601 113.878 20.597 113.972 20.4709C114.082 20.329 114.137 20.1634 114.137 19.9742C114.137 19.7062 114.082 19.509 113.972 19.3829C113.878 19.2568 113.728 19.1859 113.523 19.17L109.979 18.6734C108.877 18.5156 107.987 18.153 107.31 17.5854C106.648 17.0177 106.318 16.0716 106.318 14.7471V12.2636C106.318 10.9233 106.751 9.8984 107.617 9.18883C108.483 8.46349 109.68 8.10083 111.208 8.10083H117.823C118.122 8.10083 118.335 8.17179 118.461 8.3137C118.603 8.43984 118.673 8.65271 118.673 8.95231V11.7669C118.673 12.0665 118.603 12.2873 118.461 12.4292C118.335 12.5553 118.122 12.6184 117.823 12.6184H112.318C112.113 12.6184 111.956 12.6894 111.846 12.8313C111.735 12.9574 111.68 13.123 111.68 13.328C111.68 13.533 111.735 13.7064 111.846 13.8483C111.956 13.9902 112.113 14.0691 112.318 14.0848L115.838 14.5579C116.941 14.7156 117.831 15.0782 118.508 15.6459C119.185 16.2135 119.524 17.1596 119.524 18.4841V20.9676C119.524 22.308 119.083 23.3407 118.201 24.066C117.335 24.7756 116.146 25.1304 114.634 25.1304ZM126.479 25.1304H122.959C122.66 25.1304 122.439 25.0673 122.297 24.9412C122.171 24.7993 122.108 24.5786 122.108 24.2789V8.95231C122.108 8.65271 122.171 8.43984 122.297 8.3137C122.439 8.17179 122.66 8.10083 122.959 8.10083H126.762C127.014 8.10083 127.219 8.15601 127.377 8.2664C127.55 8.37678 127.707 8.5581 127.849 8.8104L129.975 12.6657C130.054 12.8076 130.117 12.9101 130.164 12.9732C130.227 13.0363 130.306 13.0678 130.401 13.0678H130.613C130.708 13.0678 130.779 13.0363 130.826 12.9732C130.889 12.9101 130.96 12.8076 131.039 12.6657L133.141 8.8104C133.283 8.5581 133.433 8.37678 133.59 8.2664C133.763 8.15601 133.976 8.10083 134.228 8.10083H138.055C138.354 8.10083 138.567 8.17179 138.693 8.3137C138.835 8.43984 138.906 8.65271 138.906 8.95231V24.2789C138.906 24.5786 138.835 24.7993 138.693 24.9412C138.567 25.0673 138.354 25.1304 138.055 25.1304H134.417C134.118 25.1304 133.897 25.0673 133.755 24.9412C133.629 24.7993 133.566 24.5786 133.566 24.2789V15.9534L132.173 18.5314C132.031 18.7994 131.857 18.9966 131.653 19.1227C131.464 19.2332 131.22 19.2883 130.92 19.2883H129.975C129.676 19.2883 129.424 19.2332 129.219 19.1227C129.03 18.9966 128.865 18.7994 128.723 18.5314L127.329 15.9534V24.2789C127.329 24.5786 127.259 24.7993 127.117 24.9412C126.991 25.0673 126.778 25.1304 126.479 25.1304ZM148.324 13.0678L147.213 16.6629H150.922L149.812 13.0678C149.748 12.9259 149.678 12.8234 149.599 12.7603C149.536 12.6972 149.458 12.6657 149.363 12.6657H148.772C148.678 12.6657 148.591 12.6972 148.513 12.7603C148.449 12.8234 148.387 12.9259 148.324 13.0678ZM146.977 24.2789C146.977 24.5786 146.906 24.7993 146.764 24.9412C146.638 25.0673 146.425 25.1304 146.126 25.1304H142.653C142.354 25.1304 142.134 25.0673 141.992 24.9412C141.866 24.7993 141.803 24.5786 141.803 24.2789V18.0347C141.803 17.5617 141.874 17.0177 142.016 16.4027C142.173 15.7878 142.409 15.0704 142.724 14.2504L144.78 8.88135C144.874 8.6133 145.016 8.41619 145.205 8.29005C145.41 8.16391 145.669 8.10083 145.984 8.10083H152.34C152.64 8.10083 152.883 8.16391 153.072 8.29005C153.277 8.41619 153.427 8.6133 153.521 8.88135L155.576 14.2504C155.891 15.0704 156.12 15.7878 156.262 16.4027C156.42 17.0177 156.498 17.5617 156.498 18.0347V24.2789C156.498 24.5786 156.427 24.7993 156.285 24.9412C156.16 25.0673 155.947 25.1304 155.647 25.1304H152.08C151.765 25.1304 151.529 25.0673 151.371 24.9412C151.229 24.7993 151.159 24.5786 151.159 24.2789V20.9676H146.977V24.2789ZM166.501 25.1304H162.674C162.374 25.1304 162.154 25.0673 162.013 24.9412C161.886 24.7993 161.824 24.5786 161.824 24.2789V12.6657H158.351C158.051 12.6657 157.831 12.6026 157.689 12.4765C157.562 12.3346 157.5 12.1138 157.5 11.8142V8.95231C157.5 8.65271 157.562 8.43984 157.689 8.3137C157.831 8.17179 158.051 8.10083 158.351 8.10083H170.825C171.123 8.10083 171.336 8.17179 171.463 8.3137C171.604 8.43984 171.675 8.65271 171.675 8.95231V11.8142C171.675 12.1138 171.604 12.3346 171.463 12.4765C171.336 12.6026 171.123 12.6657 170.825 12.6657H167.352V24.2789C167.352 24.5786 167.281 24.7993 167.139 24.9412C167.012 25.0673 166.8 25.1304 166.501 25.1304ZM185.785 25.1304H174.823C174.524 25.1304 174.304 25.0673 174.162 24.9412C174.035 24.7993 173.973 24.5786 173.973 24.2789V8.95231C173.973 8.65271 174.035 8.43984 174.162 8.3137C174.304 8.17179 174.524 8.10083 174.823 8.10083H185.785C186.084 8.10083 186.296 8.17179 186.423 8.3137C186.565 8.43984 186.636 8.65271 186.636 8.95231V11.7196C186.636 12.0192 186.565 12.24 186.423 12.3819C186.296 12.508 186.084 12.5711 185.785 12.5711H179.265V14.3923H183.872C184.17 14.3923 184.383 14.4633 184.51 14.6052C184.651 14.7313 184.722 14.9441 184.722 15.2438V17.7746C184.722 18.0742 184.651 18.2949 184.51 18.4368C184.383 18.5629 184.17 18.626 183.872 18.626H179.265V20.6601H185.785C186.084 20.6601 186.296 20.7311 186.423 20.873C186.565 20.9991 186.636 21.212 186.636 21.5116V24.2789C186.636 24.5786 186.565 24.7993 186.423 24.9412C186.296 25.0673 186.084 25.1304 185.785 25.1304Z" fill="white"/>
<path d="M0 14.7826C0 6.6184 6.61079 0 14.7656 0H32.4844V17.7391C32.4844 25.9033 25.8735 32.5217 17.7188 32.5217H0V14.7826Z" fill="url(#paint0_linear_106_1360)"/>
<path d="M15.3711 25.5325C14.2213 25.5325 13.166 25.3038 12.2053 24.8466C11.2445 24.3735 10.4728 23.6561 9.89005 22.6942C9.32305 21.7323 9.03955 20.534 9.03955 19.0991C9.03955 17.27 9.4963 15.5198 10.4098 13.8483C11.3233 12.1611 12.5597 10.7972 14.1189 9.75648C15.6939 8.71578 17.4107 8.19543 19.2692 8.19543C20.2771 8.19543 21.2221 8.35312 22.1042 8.66848C22.9862 8.96808 23.6004 9.37804 23.947 9.89839C23.7894 10.3084 23.6477 10.8287 23.5217 11.4594C23.4114 12.0744 23.3484 12.6578 23.3327 13.2097L22.7421 13.3043C22.7421 13.0678 22.7263 12.7761 22.6948 12.4292C22.679 12.0823 22.6476 11.7669 22.6003 11.4831C22.49 10.742 22.1751 10.1743 21.6553 9.78013C21.1512 9.38592 20.3796 9.18883 19.3401 9.18883C17.6547 9.18883 16.1271 9.67764 14.7568 10.6553C13.4023 11.6329 12.3392 12.8864 11.5674 14.416C10.7957 15.9455 10.4098 17.4907 10.4098 19.0518C10.4098 20.2502 10.6382 21.2514 11.0949 22.0556C11.5674 22.844 12.1895 23.4353 12.9613 23.8295C13.7488 24.208 14.6229 24.3972 15.5837 24.3972C17.2375 24.3972 18.7809 23.861 20.2142 22.7888C21.6474 21.7008 22.7341 20.1556 23.4745 18.153C23.8997 18.153 24.1123 18.4447 24.1123 19.0281C24.1123 19.8481 23.7027 20.7784 22.8838 21.8191C22.0648 22.844 20.978 23.7191 19.6236 24.4445C18.2848 25.1699 16.8673 25.5325 15.3711 25.5325Z" fill="white"/>
<defs>
<linearGradient id="paint0_linear_106_1360" x1="16.2422" y1="0" x2="16.2422" y2="32.5217" gradientUnits="userSpaceOnUse">
<stop stop-color="white"/>
<stop offset="1" stop-color="#B7B7B7"/>
</linearGradient>
</defs>
</svg>
